<?xml version="1.0" encoding="utf-8"?>
<!-- Generator: Adobe Illustrator 25.4.0, SVG Export Plug-In . SVG Version: 6.00 Build 0)  -->
<svg version="1.1" id="Layer_1" xmlns="http://www.w3.org/2000/svg" xmlns:xlink="http://www.w3.org/1999/xlink" x="0px" y="0px" width="90" height="90"
	 viewBox="0 0 100 100" style="enable-background:new 0 0 91.1 91.2;" xml:space="preserve">
<style type="text/css">
	.st0{clip-path:url(#SVGID_00000060710848998506155490000014416166775040266377_);}
	.st1{fill:#F7941D;}
	.st2{fill:#FFFFFF;}
	.st3{fill:#754C29;}
	.st4{fill:#F9CF93;}
	.st5{fill:#231F20;}
	.st6{fill:#D1D3D4;}
	.st7{clip-path:url(#SVGID_00000126315228210427636050000014260555583807864728_);}
	.st8{fill:#E6E7E8;}
	.st9{fill:#EFB160;}
	.st10{fill:#A7A9AC;}
	.st11{fill:#FFECD2;}
	.st12{fill:#B28364;}
	.st13{clip-path:url(#SVGID_00000154422020596200116080000010937187602360222384_);}
	.st14{fill:#DD626B;}
	.st15{fill:#1D2126;}
	.st16{clip-path:url(#SVGID_00000145033122249827719040000006714355166773791673_);}
	.st17{fill:#FF914D;}
</style>
<g>
	<g>
		<defs>
			<rect id="SVGID_1_" x="10.4" y="21.8" width="64.6" height="64.6"/>
		</defs>
		<clipPath id="SVGID_00000132078231379772237230000015166683028819653770_">
			<use xlink:href="#SVGID_1_"  style="overflow:visible;"/>
		</clipPath>
		<g style="clip-path:url(#SVGID_00000132078231379772237230000015166683028819653770_);">
			<path class="st1" d="M75,54.1c0,0.7,0,1.4-0.1,2.2c0,0.7-0.1,1.4-0.2,2.1c-0.1,0.7-0.2,1.4-0.4,2.1c-0.1,0.7-0.3,1.4-0.5,2.1
				c-0.2,0.7-0.4,1.4-0.6,2.1c-0.2,0.7-0.5,1.3-0.8,2c-0.3,0.7-0.6,1.3-0.9,2c-0.3,0.7-0.7,1.3-1,1.9c-0.4,0.6-0.7,1.2-1.2,1.8
				c-0.4,0.6-0.8,1.2-1.3,1.7s-0.9,1.1-1.4,1.6c-0.5,0.5-1,1.1-1.5,1.6c-0.5,0.5-1.1,1-1.6,1.4c-0.5,0.5-1.1,0.9-1.7,1.3
				c-0.6,0.4-1.2,0.8-1.8,1.2s-1.2,0.7-1.9,1.1c-0.3,0.2-0.7,0.4-1,0.5c0,0-0.1,0-0.1,0.1c-2.2,1.1-4.6,2-7,2.5
				c-2.4,0.6-4.9,0.9-7.4,0.9c-0.9,0-1.8,0-2.6-0.1c-1.6-0.1-3.2-0.4-4.8-0.8l-0.1,0c-0.3-0.1-0.6-0.1-0.8-0.2l-0.1,0
				c-2-0.5-3.9-1.3-5.7-2.1L28.4,83c-0.4-0.2-0.8-0.4-1.1-0.6c-0.4-0.2-0.8-0.5-1.3-0.7c-0.4-0.2-0.8-0.5-1.2-0.8
				c-0.4-0.3-0.8-0.5-1.2-0.8c-0.4-0.3-0.8-0.6-1.1-0.9s-0.7-0.6-1.1-0.9c-0.3-0.3-0.7-0.7-1-1c-0.3-0.3-0.7-0.7-1-1
				c-0.3-0.4-0.7-0.7-1-1.1c-0.3-0.4-0.6-0.7-0.9-1.1c-0.3-0.4-0.6-0.8-0.9-1.1c-0.3-0.4-0.6-0.8-0.8-1.2c-0.3-0.4-0.5-0.8-0.8-1.2
				c-0.2-0.4-0.5-0.8-0.7-1.3c-0.2-0.4-0.4-0.9-0.7-1.3c-0.2-0.4-0.4-0.9-0.6-1.3c-0.2-0.4-0.4-0.9-0.5-1.3
				c-0.2-0.5-0.3-0.9-0.5-1.4c-0.2-0.5-0.3-0.9-0.4-1.4c-0.1-0.5-0.2-0.9-0.3-1.4c-0.1-0.5-0.2-0.9-0.3-1.4
				c-0.1-0.5-0.2-0.9-0.2-1.4c-0.1-0.5-0.1-1-0.2-1.4c0-0.5-0.1-1-0.1-1.4c0-0.5,0-1,0-1.4c0-0.5,0-1,0-1.4c0-0.5,0.1-1,0.1-1.4
				c0-0.5,0.1-1,0.2-1.4c0.1-0.5,0.1-0.9,0.2-1.4c0.1-0.5,0.2-0.9,0.3-1.4c0.1-0.5,0.2-0.9,0.4-1.4c0.1-0.5,0.3-0.9,0.4-1.4
				c0.2-0.5,0.3-0.9,0.5-1.4c0.1-0.3,0.2-0.6,0.3-0.9c0,0,0-0.1,0-0.1c0.2-0.6,0.5-1.2,0.8-1.7l0-0.1c0.1-0.2,0.2-0.5,0.4-0.7
				c0,0,0-0.1,0-0.1c1.2-2.3,2.7-4.4,4.3-6.3c1.7-1.9,3.6-3.6,5.7-5.1l0,0c0,0,0,0,0,0c0.3-0.2,0.6-0.4,0.9-0.6
				c1.3-0.9,2.7-1.6,4.1-2.2c1.4-0.7,2.9-1.2,4.3-1.6c1.5-0.4,3-0.8,4.5-1c1.5-0.2,3.1-0.3,4.6-0.3C60.6,21.8,75,36.2,75,54.1z"/>
		</g>
	</g>
</g>
<path class="st2" d="M37.9,63.9h-0.2L36,64c-0.1,0-0.1,0-0.2,0.1c-0.1,0-0.1,0.1-0.1,0.2c0,0.1-4,9.4-1.3,21l-0.1,0
	c-2-0.5-3.9-1.3-5.7-2.1L28.4,83c-0.2-0.4-0.3-0.8-0.4-1.3c-0.1-0.5-0.1-0.9,0-1.3c0.4-3.2,0.6-6.4,0.6-9.6
	c-0.1-6.8-5-13.2-5.9-14.4c0,0,0,0-0.1-0.1l0.1,0c1.1-0.6,2.3-1.5,3.5-2.3c0.9-0.6,1.7-1.2,2.2-1.5c0.2-0.1,0.4-0.2,0.5-0.3
	c0,0,0,0,0.1,0l0,0.1l3.3,5.3l0.1,0.2c0,0,0,0.1,0.1,0.1c0,0,0,0.1,0.1,0.2c0.5,1.1,1,2.2,1.8,3.1c0.9,1.2,2.1,2.1,3.4,2.7
	L37.9,63.9z"/>
<path class="st3" d="M54.4,53.4l0.6-2.3c0-0.1,0.1-0.2,0.2-0.2c-0.4,0-0.8-0.1-1.2-0.2l0.2,2.5c0,0,0,0,0,0.1
	C54.4,53.3,54.4,53.3,54.4,53.4z"/>
<path class="st2" d="M28,51.9c0.9-0.5,1.4-1,1.4-1.4c0-0.2-0.1-0.3-0.3-0.5c-0.5,0.6-1.1,0.9-1.8,1.2c0,0-0.1,0-0.1,0
	c0,0-0.1,0-0.1,0c0,0-0.1,0-0.1-0.1c0,0,0-0.1-0.1-0.1c0,0,0-0.1,0-0.1s0-0.1,0-0.1c0,0,0-0.1,0.1-0.1c0,0,0.1-0.1,0.1-0.1
	c1.2-0.4,1.8-1.2,1.7-1.6c0-0.2-0.3-0.2-0.5-0.2c-0.8,0-4.1,2.2-8.4,5.3c-0.1,0.1-0.2,0.2-0.2,0.3c0,0.1,0,0.2,0,0.3
	c0,0.1,0.1,0.2,0.1,0.2c0.2,0,0.8,0.1,3.1-1.6c0,0,0.1,0,0.1-0.1c0,0,0.1,0,0.2,0c0,0,0.1,0,0.1,0c0,0,0.1,0.1,0.1,0.1
	c0,0,0,0.1,0.1,0.1c0,0,0,0.1,0,0.2c0,0,0,0.1,0,0.1s-0.1,0.1-0.1,0.1c-1.1,0.9-2,1.4-2.5,1.6c-0.2,0.4-0.2,0.9-0.1,1
	c0,0.1,0.2,0.1,0.4,0c0.9-0.2,3-1.6,4.7-2.8C26.6,52.8,27.4,52.2,28,51.9z"/>
<path class="st4" d="M53.5,52.7l-0.2-2.2v-0.1l-0.1,0c-0.1,0-0.2-0.1-0.3-0.1c0,0-0.1,0-0.1,0c-0.1,0-0.2-0.1-0.3-0.1
	c-0.1,0-0.1,0-0.2-0.1c-0.1,0-0.2-0.1-0.2-0.1l-0.2-0.1c-0.1,0-0.1-0.1-0.2-0.1l-0.1-0.1c-0.1,0-0.2-0.1-0.2-0.1l-0.1-0.1
	c-0.1-0.1-0.2-0.1-0.3-0.2c-0.1-0.1-0.2-0.1-0.3-0.2c-0.1-0.1-0.2-0.1-0.3-0.2c-0.6-0.5-1.1-1-1.6-1.6l-0.1-0.1l-0.1,0
	c-1.3,0.3-2.4,0.2-3.5-0.2c-1.9-0.7-2.9-2.4-3.3-3.2c-1.1,0.9-4.1,3.1-7.6,3.6c-0.5,0.1-1,0.1-1.5,0.1c-0.1,0-0.2,0-0.3,0h-0.1
	c-0.1,0-0.1,0-0.2,0H32c0,0,0,0.1,0,0.1c0,0.1,0,0.1,0,0.2c0,0.7-0.1,1.5-0.1,2.4c0,0.2,0,0.4,0,0.6c0,0.1,0,0.2,0,0.4
	c0,0.1,0,0.2,0,0.3c0,0.1,0,0.2,0,0.4l0,0.4c0,0.2,0,0.3,0,0.5c0,0,0,0,0,0c0,0.3,0.1,0.6,0.1,1c0,0.1,0,0.2,0,0.3
	c0,0.1,0,0.2,0.1,0.3c0,0.2,0.1,0.3,0.1,0.5c0,0.2,0.1,0.3,0.1,0.5c0,0.2,0.1,0.3,0.1,0.4c0.1,0.2,0.1,0.5,0.2,0.7
	c0,0.1,0.1,0.2,0.1,0.3c0,0.1,0,0.2,0.1,0.2c0,0.1,0,0.1,0.1,0.2c0,0,0,0,0,0.1c0,0.1,0,0.1,0.1,0.2c0,0,0,0.1,0,0.1
	c0.1,0.3,0.2,0.6,0.4,0.9c0,0.1,0.1,0.2,0.1,0.3c0,0.1,0.1,0.2,0.1,0.2c0,0.1,0.1,0.1,0.1,0.2c0.2,0.4,0.5,0.8,0.8,1.2l0.1,0.2
	l0.1,0.2c0.1,0.1,0.1,0.2,0.2,0.2l0.1,0.1c0,0.1,0.1,0.1,0.2,0.2c0.1,0.1,0.1,0.1,0.2,0.2c0,0,0,0,0,0c0.1,0.1,0.1,0.1,0.2,0.2
	c0,0,0.1,0.1,0.1,0.1c0,0,0,0,0.1,0.1l0,0c0,0,0.1,0.1,0.2,0.1l0,0c0.1,0.1,0.2,0.2,0.3,0.2l0.1,0.1c0.1,0,0.1,0.1,0.2,0.2
	c0.1,0,0.1,0.1,0.2,0.1c0.1,0.1,0.2,0.2,0.4,0.2l0.2,0.1c0,0,0,0,0,0c0.1,0,0.1,0.1,0.2,0.1l0.2,0.1c0,0,0,0,0,0
	c0.1,0,0.1,0.1,0.2,0.1l0.1,0c0.1,0,0.2,0.1,0.2,0.1c0,0,0.1,0,0.1,0c0,0,0.1,0,0.1,0.1c0.1,0,0.1,0.1,0.2,0.1h0
	c0.1,0,0.1,0,0.2,0.1l0,0c0,0,0.1,0,0.1,0c0,0,0.1,0,0.2,0.1l0.2,0h0c0.1,0,0.2,0.1,0.3,0.1h0c0.1,0,0.2,0,0.2,0.1l0.2,0
	c0.1,0,0.2,0,0.4,0.1l0.2,0c0.1,0,0.2,0,0.3,0c0,0,0,0,0.1,0c0.1,0,0.2,0,0.3,0c0.2,0,0.3,0,0.5,0c0.1,0,0.2,0,0.2,0h0
	c0.1,0,0.2,0,0.2,0s0.2,0,0.3,0c0.6,0,1.1,0,1.7,0l0.2,0c0.3,0,0.7-0.1,1-0.1c0.1,0,0.2,0,0.2,0l0.2,0l0.2,0l0.2,0l0.2,0l0.2,0
	l0.2-0.1l0.2-0.1l0.2,0l-0.2,0c0,0-0.1,0-0.1,0l-0.1,0c-0.2-0.1-0.4-0.2-0.7-0.3c0,0,0,0-0.1,0c-0.1-0.1-0.2-0.1-0.2-0.1
	c-0.1,0-0.1-0.1-0.2-0.1l0,0c0,0-0.1-0.1-0.1-0.1l0,0h0c0,0-0.1-0.1-0.1-0.1l0,0c0,0-0.1-0.1-0.1-0.1c-0.2-0.2-0.4-0.5-0.5-0.9
	c-0.1-0.3-0.2-0.6-0.2-1c0-1,0.5-1.9,1.2-2.2c0.1,0,0.1,0,0.2-0.1l0,0c-0.1-0.2-0.2-0.6,0.1-1.1c0.3-0.7,1-1.1,1.9-1.3
	c0.5-0.1,1.1-0.1,1.6,0l0.1,0c0,0,0-0.1,0-0.1c-0.3-1-0.6-2.7,0.2-3.6c0.2-0.2,0.4-0.3,0.6-0.4c0.1,0,0.2,0,0.4,0.1l0.1,0l0,0l0.1,0
	c0,0,0.1,0,0.1,0.1c0,0,0.1,0,0.1,0.1c0,0,0.1,0.1,0.2,0.2c0.2,0.3,0.4,0.6,0.5,0.9c0,0,0,0.1,0.1,0.1c0,0,0,0.1,0.1,0.2
	c0,0,0,0.1,0,0.1c0,0,0-0.1,0.1-0.2c0,0,0-0.1,0.1-0.1c0,0,0-0.1,0.1-0.1c0,0,0-0.1,0.1-0.1c0-0.1,0.1-0.1,0.1-0.2c0,0,0,0,0.1-0.1
	c0.1-0.1,0.1-0.1,0.2-0.2c0,0,0,0,0.1,0l0.1,0c0,0,0.1,0,0.1,0c0,0,0.1,0,0.1,0l0,0c0,0,0.1,0,0.1,0c0,0,0.1,0,0.1,0L53.5,52.7z
	 M40.5,56.2l3.6,0c0.1,0,0.2,0,0.2,0.1s0.1,0.1,0.1,0.2c0,0.2,0.4,2.3-0.4,3.2c-0.1,0.2-0.3,0.3-0.4,0.4c-0.2,0.1-0.4,0.1-0.5,0.2
	H43c-2.2,0-2.8-3.6-2.8-3.7c0-0.1,0-0.2,0.1-0.3C40.3,56.2,40.4,56.2,40.5,56.2L40.5,56.2z"/>
<path class="st3" d="M32.1,46.9c3.8,0.3,7.6-2.4,9-3.4c-1.4,0-2.8,0.2-4.2,0.5c-1.4,0.3-2.7,0.7-4,1.3c-0.2,0.1-0.3,0.1-0.5,0.1
	c0,0,0,0.1,0,0.2C32.3,45.5,32.2,46,32.1,46.9z"/>
<path class="st5" d="M43,59.6L43,59.6c0.3,0,0.4-0.1,0.5-0.2c0.4-0.5,0.4-1.7,0.3-2.3L41,57C41.2,57.8,41.8,59.6,43,59.6z"/>
<path class="st4" d="M26.3,48.5l-3-6.3v0c0,0,0,0,0,0c0,0,0,0,0,0c0,0,0,0,0,0s0,0,0,0v0c0,0,0,0,0,0c0,0,0,0,0,0c0-0.3,0-1-0.4-1.3
	c-0.2-0.2-0.4-0.2-0.8-0.2c-0.3,0-0.6,0.2-0.7,0.4c-0.2,0.3-0.1,0.9-0.1,1.1c0,0,0,0,0,0s0,0,0,0c0,0,0,0,0,0v0v0v0c0,0,0,0,0,0
	s0,0,0,0c0,0,0,0,0,0v0c0,0,0,0,0,0l0,0c0,0,0,0,0,0l0,0.1c0,0,0,0,0,0h0c0,0,0,0,0,0h0c0,0,0,0,0,0h0l-5.3,0l3.3,3.2
	c0,0,0,0.1,0.1,0.1l2.8,5.6C23.4,50.3,25,49.2,26.3,48.5z"/>
<path class="st6" d="M26.9,32.8c0-0.6,0-1.2,0.1-1.8c0.1-0.6,0.3-1.2,0.6-1.7c-0.5-0.4-1.1-0.8-1.7-1.1c-0.6-0.3-1.2-0.6-1.9-0.8
	c-0.7-0.2-1.3-0.4-2-0.5c-0.7-0.1-1.4-0.2-2-0.2c-0.4,0-0.8,0-1.2,0.1c-0.4,0-0.8,0.1-1.2,0.2c-0.4,0.1-0.8,0.2-1.2,0.3
	c-0.4,0.1-0.8,0.2-1.1,0.4c-0.4,0.2-0.7,0.3-1.1,0.5c-0.4,0.2-0.7,0.4-1.1,0.6c-0.3,0.2-0.7,0.5-1,0.7c-0.3,0.2-0.6,0.5-0.9,0.8
	s-0.6,0.6-0.8,0.9c-0.3,0.3-0.5,0.6-0.7,1c-0.2,0.3-0.4,0.7-0.7,1c-0.2,0.4-0.4,0.7-0.5,1.1c-0.2,0.4-0.3,0.8-0.4,1.1
	c-0.1,0.4-0.2,0.8-0.3,1.2c-0.1,0.4-0.2,0.8-0.2,1.2c0,0.4-0.1,0.8-0.1,1.2h23C29.1,38,27.1,35.7,26.9,32.8z"/>
<path class="st6" d="M22.2,26.2c0-0.2,0-0.3-0.1-0.4c0-0.1-0.1-0.3-0.2-0.4c-0.1-0.1-0.1-0.3-0.2-0.4s-0.2-0.2-0.3-0.3
	s-0.2-0.2-0.4-0.3c-0.1-0.1-0.2-0.1-0.4-0.2c-0.1,0-0.3-0.1-0.4-0.1c-0.1,0-0.3,0-0.4,0s-0.3,0-0.4,0c-0.2,0-0.3,0.1-0.4,0.1
	c-0.1,0-0.3,0.1-0.4,0.2c-0.1,0.1-0.2,0.2-0.4,0.3c-0.1,0.1-0.2,0.2-0.3,0.3c-0.1,0.1-0.2,0.2-0.2,0.4c-0.1,0.1-0.1,0.3-0.2,0.4
	c0,0.1-0.1,0.3-0.1,0.4C19.1,25.9,20.6,25.9,22.2,26.2z"/>
<path class="st6" d="M23.4,40.2c0.4,0.4,0.6,1.1,0.6,1.5h6.2c0-0.3,0-0.7,0-1s0.2-0.6,0.3-0.9h-7.8C23,39.9,23.2,40,23.4,40.2z"/>
<path class="st6" d="M20.7,40.5c0.1-0.2,0.2-0.3,0.4-0.4c0.2-0.1,0.3-0.2,0.5-0.2H2.1v1.9h12.6l5.8,0C20.5,41.2,20.5,40.8,20.7,40.5
	z"/>
<path class="st4" d="M57.8,50.7c-0.7-0.1-1.4,0.2-1.9,0.8c0,0-0.1,0.1-0.2,0.1l-1.2,4.7c0,0,0,0.1-0.1,0.1c-0.2,0.9-0.4,1.7-0.7,2.5
	c0.5-0.8,1-1.6,1.4-2.5c0,0,0-0.1,0.1-0.1l0,0c0,0,0.1-0.1,0.1-0.1c0,0,0.1,0,0.1,0c0,0,0.1,0,0.1,0c0,0,0.1,0,0.1,0.1
	c0.3,0.3,0.7,0.5,1.1,0.6c0.6,0.1,1.2-0.1,1.8-0.6c0.3-0.3,0.5-0.6,0.7-1c0.2-0.4,0.3-0.7,0.3-1.1C59.9,52.4,59,50.9,57.8,50.7z"/>
<g>
	<g>
		<defs>
			<rect id="SVGID_00000137816019973685995130000011483198049775499182_" x="34" y="63.9" width="23.5" height="22.5"/>
		</defs>
		<clipPath id="SVGID_00000146473389313329219290000008007955186965139884_">
			<use xlink:href="#SVGID_00000137816019973685995130000011483198049775499182_"  style="overflow:visible;"/>
		</clipPath>
		<g style="clip-path:url(#SVGID_00000146473389313329219290000008007955186965139884_);">
			<path class="st2" d="M57.3,82.9c0,0-0.1,0-0.1,0.1c-2.2,1.1-4.6,2-7,2.5c-2.4,0.6-4.9,0.9-7.4,0.9c-0.9,0-1.8,0-2.6-0.1
				c-1.6-0.1-3.2-0.4-4.8-0.8l-0.1,0c-2.5-10.6,0.5-19.3,1.1-20.7l3.3-0.1l0.3,0l0.3,0.1c0.9,0.2,1.7,0.3,2.6,0.3c0.2,0,0.5,0,0.7,0
				c1.8,0,3.6-0.3,5.3-1l0.2-0.1h0.2l0,0l0,0l0.1,0.1l1.4,1.3l0.1,0.1c0,0,0,0-0.1,0.1c-0.3,0.3-0.6,0.6-0.8,0.8l-0.1,0.1
				c-0.1,0.1-0.2,0.2-0.2,0.3c-0.1,0.1-0.1,0.2-0.1,0.3c0,0.1,0,0.2,0,0.4c0,0.1,0,0.2,0.1,0.4c0,0.2,0.1,0.3,0.2,0.4
				c0.1,0.1,0.2,0.2,0.4,0.2c0.1,0,0.1,0,0.2,0h0c0,0,0.1,0,0.1,0c0,0,0,0.1,0,0.1c0,0.3,0,0.7,0.3,1l0,0c0.2,0.2,0.4,0.2,0.6,0.2
				c0.2,0,0.3,0,0.5-0.1c0.2-0.1,0.5-0.2,0.7-0.4l0.1-0.1c0,0,0,0.1,0,0.1s0,0.1,0,0.1c0.1,0.2,1.6,2.5,3.5,4.2c0,0,0.1,0.1,0.1,0.1
				l0,0.1l1.2,7C57.5,81.6,57.5,82.3,57.3,82.9z"/>
		</g>
	</g>
</g>
<path class="st8" d="M53.3,60.7l1.2,1.1c0.7-0.6,1.4-1.1,1.8-1.3c-0.7-0.3-1.4-0.7-2.1-0.9C53.9,60,53.6,60.4,53.3,60.7z"/>
<path class="st2" d="M58.5,62.6c0.1,0.5-0.2,1-0.7,1.6c0.7,0.4,3.1,1.8,4,4.2c0,0,0,0.1,0,0.1s0,0.1,0,0.1c0,0,0,0.1-0.1,0.1
	c0,0-0.1,0.1-0.1,0.1c0,0-0.1,0-0.1,0c-0.1,0-0.2,0-0.2-0.1c-0.1,0-0.1-0.1-0.1-0.2c-1-2.4-3.8-3.8-3.8-3.8c0,0,0,0-0.1,0l0,0
	c-0.4,0.3-1,0.9-1.7,1.6c-0.9,0.9-1.8,1.8-2.7,2.5c0.1,0,0.2,0.1,0.2,0.2c0,0,3.3,5.3,6.2,5.4c1.1,0,2.1-0.4,2.7-1.2
	c1.1-1.4,1.3-3.7,0.6-6.6c-0.6-2.2-2.8-4-4.9-5.2c0,0.1,0,0.2,0,0.3C58.3,61.9,58.5,62.3,58.5,62.6z"/>
<path class="st3" d="M56.3,50.2c0.2-0.1,0.4-0.1,0.6-0.2c-5.2-4.7-10.2-6.3-14.5-6.5c0.3,0.7,1.3,2.3,2.9,3c1.4,0.6,3,0.4,4.8-0.5
	c0,0,0.1,0,0.1,0c0,0,0.1,0,0.2,0c0,0,0.1,0,0.1,0.1c0,0,0.1,0.1,0.1,0.1c0,0,0,0.1,0,0.2c0,0,0,0.1,0,0.2c0,0,0,0.1-0.1,0.1
	c0,0-0.1,0.1-0.1,0.1c-0.3,0.2-0.7,0.3-1,0.4c0.7,0.9,2.9,3,6.8,3.1C56.2,50.1,56.3,50.2,56.3,50.2z"/>
<path class="st2" d="M61.9,37.1c-0.3,1.4-1.2,3-2.9,4.8c0,0-0.1,0.1-0.1,0.1c0,0-0.1,0-0.2,0c0,0-0.1,0-0.2,0s-0.1,0-0.1-0.1
	c0,0-0.1-0.1-0.1-0.1c0,0,0-0.1,0-0.2c0,0,0-0.1,0-0.2c0,0,0-0.1,0.1-0.1c2.7-2.7,3.5-5.5,2.4-7.8c-1.4-2.8-5.5-4.5-9.8-3.9
	c-3.2,0.4-6.4,0.4-9.6,0.1c-1-0.1-3.8-0.5-4.1-0.9c0-0.1-0.1-0.1-0.1-0.2s0-0.1,0-0.2c0,0,0.1-0.1,0.1-0.1c0,0,0.1,0,0.1-0.1
	c0,0,0.1,0,0.2,0c0,0,0.1,0,0.1,0c0,0,0,0,0,0c0.3,0.1,2.3,0.7,5.3,0.9c-1.3-1.4-4.8-3.9-8.4-4c-2.1,0-3.9,0.8-5.4,2.5
	c-0.4,0.5-0.8,1-1.1,1.6c0,0,0,0,0,0c-0.3,0.5-0.5,1.1-0.6,1.6c-0.1,0.6-0.2,1.1-0.1,1.7c0.3,3.3,3.3,5.9,3.7,6.3
	c0.2-0.1,0.3-0.2,0.5-0.3c7.3-3.9,16.3-0.3,16.7-0.1c0,0,0.1,0,0.1,0.1c0,0,0.1,0.1,0.1,0.1c0,0,0,0.1,0,0.1c0,0,0,0.1,0,0.1
	c0,0,0,0.1-0.1,0.1c0,0-0.1,0.1-0.1,0.1c0,0-0.1,0-0.1,0s-0.1,0-0.1,0c-0.1,0-9-3.7-16.1,0.1c-1.4,0.7-1.6,1.9-0.7,4.2
	c0.2,0.5,0.4,0.9,0.6,0.9c0.1,0,0.3,0,0.4,0c1.6-0.7,3.2-1.2,4.9-1.5s3.4-0.4,5.1-0.3c5.6,0.3,10.8,2.8,15.5,7.2
	c0.6,0.1,1.1,0.4,1.5,0.9c0.9-0.6,1.3-1.3,1.3-2.1c0-2.6-4.7-5.5-4.8-5.5c0,0-0.1-0.1-0.1-0.1c0,0,0-0.1-0.1-0.1c0,0,0-0.1,0-0.2
	c0,0,0-0.1,0-0.1c0,0,0.1-0.1,0.1-0.1c0,0,0.1,0,0.1-0.1s0.1,0,0.1,0c0,0,0.1,0,0.1,0c0.2,0.1,3.6,2.2,4.8,4.7
	c2.3,0.6,3.9,0.2,5-1.2c1.1-1.6,1.5-3.1,1.1-4.4C66.3,38.9,62.8,37.5,61.9,37.1z"/>
<path class="st2" d="M50.2,67C50.1,67,50,67.1,50,67.2c0,0.1,0,0.2,0,0.3c0,0.1,0.1,0.1,0.1,0.1c0.1,0,0.7,0,2.3-1.8
	c0,0,0.1-0.1,0.1-0.1c0,0,0.1,0,0.1,0c0,0,0.1,0,0.1,0c0,0,0.1,0,0.1,0.1c0,0,0.1,0.1,0.1,0.1c0,0,0,0.1,0,0.1c0,0,0,0.1,0,0.2
	c0,0.1,0,0.1-0.1,0.1c-0.9,0.9-1.5,1.5-1.9,1.8c-0.1,0.4-0.1,0.8,0,0.9c0,0,0.2,0,0.3,0c0.7-0.2,2.4-1.9,3.6-3.1
	c0.7-0.7,1.3-1.3,1.8-1.6c0.7-0.5,1-1.1,1-1.4c0-0.2-0.1-0.3-0.3-0.4c-0.3,0.5-0.8,1-1.4,1.2c0,0-0.1,0-0.1,0c0,0-0.1,0-0.2,0
	c0,0-0.1,0-0.1-0.1s-0.1-0.1-0.1-0.1c0,0,0-0.1,0-0.1c0,0,0-0.1,0-0.2c0,0,0-0.1,0.1-0.1c0,0,0.1-0.1,0.1-0.1c1-0.5,1.3-1.3,1.2-1.6
	c0-0.1-0.2-0.2-0.4-0.1C56,61.3,53.4,63.6,50.2,67z"/>
<path class="st9" d="M48.2,60.9c0.1,0.2,0.2,0.3,0.4,0.4c0.2,0.1,0.3,0.2,0.5,0.2c0.1,0,0.2,0,0.4,0c0.1,0,0.2-0.1,0.3-0.2
	c0.3-0.3,0.4-0.8,0.4-1.4c0-0.2-0.1-0.4-0.2-0.5c-0.2-0.2-0.5-0.1-0.7-0.1c-0.4,0.1-0.9,0.1-1.3,0c0.1,0.2,0.1,0.5,0,0.7
	c0,0.2,0,0.3,0,0.5C48,60.7,48.1,60.8,48.2,60.9z"/>
<path class="st4" d="M50.7,63.5c-0.2,0.1-0.4,0.2-0.7,0.3l1.1,1.1C52,64,53,63,53.9,62.3l-1.4-1.2c0,0.1-0.1,0.1-0.2,0.2
	c-0.1,0-0.2,0-0.3,0c-0.1,0-0.2-0.1-0.2-0.2c0-0.1,0-0.2,0-0.2c0.4-1.8-0.4-2.9-1.1-3.6c-0.5-0.4-1.5-0.6-2.3-0.5
	c-0.5,0.1-1.1,0.3-1.4,0.9c-0.1,0.1-0.1,0.2-0.1,0.4c0.1,0.2,0.4,0.3,0.8,0.4c0.5,0.1,1,0.1,1.5,0.1c0.5-0.1,0.9,0,1.3,0.3
	c0.2,0.1,0.3,0.3,0.4,0.5s0.1,0.4,0.1,0.6c0.1,0.8-0.1,1.5-0.6,2c-0.2,0.2-0.4,0.3-0.6,0.4c-0.2,0.1-0.5,0.1-0.7,0.1
	c-0.3,0-0.6-0.1-0.8-0.3c-0.2-0.2-0.5-0.4-0.6-0.6c-0.2-0.2-0.2-0.5-0.3-0.7c0-0.3,0-0.5,0-0.8c0-0.1,0-0.2,0-0.3
	c0-0.1-0.1-0.2-0.2-0.2c-0.2-0.2-0.6-0.2-0.7-0.2c-0.5,0.2-0.8,0.9-0.8,1.6c0,0.4,0.1,1.2,0.9,1.7l0,0c0,0,1.1,0.7,2.3,0.8
	c0.1,0,0.2,0,0.3,0c0.4,0,0.8-0.1,1.2-0.3c0,0,0.1,0,0.1,0s0.1,0,0.2,0c0,0,0.1,0,0.1,0.1c0,0,0.1,0.1,0.1,0.1c0,0,0,0.1,0,0.1
	c0,0,0,0.1,0,0.2C50.8,63.4,50.8,63.4,50.7,63.5C50.8,63.4,50.7,63.5,50.7,63.5L50.7,63.5z"/>
<path class="st9" d="M53.7,53.7c-0.2-0.2-0.3-0.1-0.4-0.1c-0.4,0.2-0.6,1.4-0.6,2.1c0.2,1.1,0.2,2.2,0,3.4c0,0.1,0,0.1-0.1,0.2
	c0,0.1,0,0.2,0,0.3C53.7,56.8,54.3,54.1,53.7,53.7z"/>
<path class="st4" d="M51.2,56.6c0.3,0.3,0.6,0.6,0.9,1c0-2.2-0.6-4.2-1.1-4.7c-0.1-0.1-0.2-0.2-0.2-0.2c0,0-0.1,0-0.1,0.1
	c-0.6,0.8-0.1,2.8,0.2,3.6C51,56.5,51.1,56.6,51.2,56.6z"/>
<path class="st10" d="M27.1,30.4c0.1-0.4,0.2-0.7,0.4-1.1c-1-0.8-2.2-1.4-3.4-1.8C24.1,27.5,26,28.6,27.1,30.4z"/>
<path class="st10" d="M30.2,39.1c-0.8-0.8-2-2.2-2.8-4c-1.6,2.2-6.6,3.5-12.9,4H30.2z"/>
<path class="st2" d="M24.1,27.5c-0.2-0.1-0.5-0.2-0.7-0.2c-0.2-0.1-0.5-0.1-0.7-0.2c-0.2,0-0.5-0.1-0.7-0.2s-0.5-0.1-0.7-0.1
	c-0.2,0-0.5,0-0.7-0.1c-0.2,0-0.5,0-0.7,0c-0.2,0-0.5,0-0.7,0c-0.2,0-0.5,0-0.7,0.1c-0.2,0-0.5,0.1-0.7,0.1c-0.2,0-0.5,0.1-0.7,0.2
	c-0.2,0.1-0.5,0.1-0.7,0.2c-0.2,0.1-0.5,0.2-0.7,0.2c-0.2,0.1-0.5,0.2-0.7,0.3c-0.2,0.1-0.4,0.2-0.7,0.3c-0.2,0.1-0.5,0.3-0.7,0.4
	c-0.2,0.1-0.4,0.3-0.6,0.4c-0.2,0.1-0.4,0.3-0.6,0.5s-0.4,0.3-0.6,0.5c-0.2,0.2-0.4,0.3-0.5,0.5c-0.2,0.2-0.4,0.4-0.5,0.5
	c-0.2,0.2-0.3,0.4-0.5,0.6c-0.2,0.2-0.3,0.4-0.4,0.6c-0.1,0.2-0.3,0.4-0.4,0.6c-0.1,0.2-0.2,0.4-0.4,0.7c-0.1,0.2-0.2,0.4-0.3,0.7
	c-0.1,0.2-0.2,0.5-0.3,0.7c-0.1,0.2-0.2,0.5-0.2,0.7c-0.1,0.2-0.2,0.5-0.2,0.7c-0.1,0.2-0.1,0.5-0.2,0.7c0,0.2-0.1,0.5-0.1,0.7
	c0,0.2-0.1,0.5-0.1,0.7s0,0.5,0,0.7h0.9C10.8,25.2,24.1,27.5,24.1,27.5z"/>
<path class="st2" d="M21.9,27.3c0,0.1,0,0.2,0,0.2c0,0.1-0.1,0.2-0.2,0.3s-0.2,0.2-0.3,0.3c-0.1,0.1-0.3,0.2-0.4,0.3
	s-0.3,0.2-0.5,0.2c-0.2,0.1-0.4,0.2-0.6,0.2c-0.2,0.1-0.4,0.1-0.7,0.2c-0.2,0.1-0.5,0.1-0.7,0.2s-0.5,0.1-0.7,0.1
	c-0.2,0-0.5,0-0.7,0c-0.2,0-0.5,0-0.7,0c-0.2,0-0.4,0-0.6,0c-0.2,0-0.4-0.1-0.5-0.1c-0.2,0-0.3-0.1-0.4-0.2
	c-0.1-0.1-0.2-0.1-0.2-0.2c-0.1-0.1-0.1-0.2-0.1-0.2c0-0.1,0-0.2,0-0.2c0-0.1,0.1-0.2,0.2-0.3s0.2-0.2,0.3-0.3
	c0.1-0.1,0.3-0.2,0.4-0.3s0.3-0.2,0.5-0.2c0.2-0.1,0.4-0.2,0.6-0.2c0.2-0.1,0.5-0.1,0.7-0.2c0.2-0.1,0.5-0.1,0.7-0.2
	c0.2,0,0.5-0.1,0.7-0.1c0.2,0,0.5,0,0.7,0c0.2,0,0.4,0,0.7,0c0.2,0,0.4,0,0.6,0c0.2,0,0.4,0.1,0.5,0.1c0.2,0,0.3,0.1,0.4,0.2
	c0.1,0.1,0.2,0.1,0.2,0.2C21.8,27.2,21.8,27.2,21.9,27.3z"/>
<path class="st2" d="M15.6,30.8c0,0.1,0,0.2-0.1,0.3c0,0.1-0.1,0.2-0.2,0.3c-0.1,0.1-0.2,0.1-0.3,0.2s-0.2,0.1-0.4,0.1
	s-0.2,0-0.4-0.1c-0.1,0-0.2-0.1-0.3-0.2c-0.1-0.1-0.2-0.2-0.2-0.3c0-0.1-0.1-0.2-0.1-0.3s0-0.2,0.1-0.3c0-0.1,0.1-0.2,0.2-0.3
	c0.1-0.1,0.2-0.1,0.3-0.2c0.1,0,0.2-0.1,0.4-0.1s0.2,0,0.4,0.1c0.1,0,0.2,0.1,0.3,0.2c0.1,0.1,0.2,0.2,0.2,0.3
	C15.6,30.6,15.6,30.7,15.6,30.8z"/>
<path class="st10" d="M21,24.3c0,0,0.8,1.5-2.3,1.7c-3.1,0.2,3.5,0.3,3.5,0.4c0,0.1,0.4-0.5,0.4-0.5l-1.1-1.2L21,24.3z"/>
<path class="st2" d="M21,24.3c0,0-2.5-0.5-3.1,1.8c0,0-0.8,0.5-0.8,0.4c0-0.3,0-0.6,0-0.9c0-0.2,0.7-1,0.8-1.1
	c0.1-0.1,1.4-1.1,1.4-1.1s0.6-0.3,1-0.1c0.3,0.2,0.9,0.3,1,0.5c0.1,0.2,0.2,0.3,0.3,0.4L21,24.3z"/>
<path class="st2" d="M20.1,24.5c0,0.1,0,0.1,0,0.2S20,24.8,20,24.8c0,0-0.1,0.1-0.2,0.1c-0.1,0-0.1,0-0.2,0s-0.1,0-0.2,0
	c-0.1,0-0.1-0.1-0.2-0.1c0,0-0.1-0.1-0.1-0.2c0-0.1,0-0.1,0-0.2s0-0.1,0-0.2s0.1-0.1,0.1-0.2c0,0,0.1-0.1,0.2-0.1c0.1,0,0.1,0,0.2,0
	s0.1,0,0.2,0c0.1,0,0.1,0.1,0.2,0.1c0,0,0.1,0.1,0.1,0.2C20.1,24.3,20.1,24.4,20.1,24.5z"/>
<path class="st8" d="M56,43.2c0,0-0.1-0.1-0.1-0.1c0,0,0-0.1-0.1-0.1c0,0,0-0.1,0-0.2c0,0,0-0.1,0-0.1c0,0,0.1-0.1,0.1-0.1
	c0,0,0.1,0,0.1-0.1c0,0,0.1,0,0.1,0c0,0,0.1,0,0.1,0c0.2,0.1,3.6,2.2,4.8,4.7c2.3,0.6,3.9,0.2,5-1.2c1.1-1.6,1.5-3.1,1.1-4.4
	c-0.9-2.6-4.4-4-5.3-4.4c-0.3,1.4-1.2,3-2.9,4.8c0,0-0.1,0.1-0.1,0.1c0,0-0.1,0-0.2,0c0,0-0.1,0-0.2,0c0,0-0.1,0-0.1-0.1
	c0,0-0.1-0.1-0.1-0.1c0,0,0-0.1,0-0.2c0,0,0-0.1,0-0.2c0,0,0-0.1,0.1-0.1c2.7-2.7,3.5-5.5,2.4-7.8c-0.6-1.3-1.8-2.3-3.3-3l0,0.2
	c0,0,4.9,9.2-4,9.7c0,0,1.2,3.7-6,3c-0.2,0-0.5,0-0.7,0c4,1.1,7.7,3.2,11.2,6.5c0.6,0.1,1.1,0.4,1.5,0.9c0.9-0.6,1.4-1.3,1.4-2.1
	C60.8,46.1,56.1,43.2,56,43.2z"/>
<path class="st8" d="M56,43.2c0,0-0.1-0.1-0.1-0.1c0,0,0-0.1-0.1-0.1c0,0,0-0.1,0-0.2c0,0,0-0.1,0-0.1c0,0,0.1-0.1,0.1-0.1
	c0,0,0.1,0,0.1-0.1c0,0,0.1,0,0.1,0c0,0,0.1,0,0.1,0c0.2,0.1,3.6,2.2,4.8,4.7c2.3,0.6,3.9,0.2,5-1.2c1.1-1.6,1.5-3.1,1.1-4.4
	c-0.9-2.6-4.4-4-5.3-4.4c-0.3,1.4-1.2,3-2.9,4.8c0,0-0.1,0.1-0.1,0.1c0,0-0.1,0-0.2,0c0,0-0.1,0-0.2,0c0,0-0.1,0-0.1-0.1
	c0,0-0.1-0.1-0.1-0.1c0,0,0-0.1,0-0.2c0,0,0-0.1,0-0.2c0,0,0-0.1,0.1-0.1c2.7-2.7,3.5-5.5,2.4-7.8c-0.6-1.3-1.8-2.3-3.3-3l0,0.2
	c0,0,4.9,9.2-4,9.7c0,0,1.2,3.7-6,3c-0.2,0-0.5,0-0.7,0c4,1.1,7.7,3.2,11.2,6.5c0.6,0.1,1.1,0.4,1.5,0.9c0.9-0.6,1.4-1.3,1.4-2.1
	C60.8,46.1,56.1,43.2,56,43.2z"/>
<path class="st2" d="M65.8,44.3c-1.6,2.9-5.3,1.8-5.3,1.8c0.2,0.3,0.5,0.7,0.7,1.1c2.3,0.6,3.9,0.2,5-1.2c1.1-1.6,1.5-3.1,1.1-4.4
	c-0.9-2.6-4.4-4-5.3-4.4C61.9,37.1,67.7,40.7,65.8,44.3z"/>
<path class="st2" d="M56.6,43.5L56,43.2c0,0,4.8,3.9,3.7,5.9c-0.2,0.5-0.6,0.9-0.9,1.2c0.2,0.2,0.5,0.3,0.7,0.5
	c0.9-0.6,1.3-1.3,1.3-2.1C60.8,46.6,57.8,44.4,56.6,43.5z"/>
<path class="st9" d="M46.1,63.1c-0.2-0.1-0.5-0.3-0.7-0.5C44.8,62.8,44,63,43.3,63c-4,0.4-6.8-0.9-8.6-2.7c0.1,0.1,0.2,0.2,0.2,0.3
	c1.3,1.6,3,2.7,5,3.2h0c0.1,0,0.2,0,0.2,0.1c0.9,0.2,1.7,0.3,2.6,0.3c1.6,0.1,3.1-0.1,4.7-0.6C47,63.5,46.6,63.3,46.1,63.1z"/>
<path class="st9" d="M50.7,52c0.1,0,0.2,0,0.4,0.1c0.5,0.2,0.9,0.9,1.2,1.8c0.2-0.4,0.4-0.7,0.7-0.9c0.2-0.1,0.4-0.1,0.6-0.1
	l-0.2-2.4c-1.1-0.3-2.1-0.8-3-1.5C50.5,50,50.6,51,50.7,52z"/>
<path class="st11" d="M34.2,47.5c-0.5,0.1-1,0.1-1.5,0.1c-0.2,0-0.4,0-0.6,0v0c-0.2,3.2-0.2,9.2,2.9,13c-3.7-8.9-0.7-13-0.7-13
	L34.2,47.5z"/>
<path class="st12" d="M42.4,43.4c0,0,2.8,4.2,8,1.8l0.6,0.2c0,0,0.5,1.2-1.6,1.6C47.3,47.5,42.8,46.3,42.4,43.4z"/>
<path class="st12" d="M34.2,44.7c0,0,1.3,2.2,6.9-1.2c0,0-3.7,4.3-9,3.4l0.2-1.5l2.2-0.8L34.2,44.7z"/>
<path class="st3" d="M55.4,56.6l2.4,1l-0.4,3.1L54.2,59L55.4,56.6z"/>
<g>
	<g>
		<defs>
			<rect id="SVGID_00000118371650831897245980000002671223915112162472_" x="40" y="69.2" width="17.5" height="17.2"/>
		</defs>
		<clipPath id="SVGID_00000170237637322014538280000014547491030776373134_">
			<use xlink:href="#SVGID_00000118371650831897245980000002671223915112162472_"  style="overflow:visible;"/>
		</clipPath>
		<g style="clip-path:url(#SVGID_00000170237637322014538280000014547491030776373134_);">
			<path class="st8" d="M57.3,82.9c0,0-0.1,0-0.1,0.1c-2.2,1.1-4.6,2-7,2.5c-2.4,0.6-4.9,0.9-7.4,0.9c-0.9,0-1.8,0-2.6-0.1
				c11.6-0.9,11.8-10.3,10.5-16.6l0-0.2l0,0c0,0,0,0,0,0c0.2,0.2,0.4,0.2,0.6,0.2c0.2,0,0.3,0,0.5-0.1c0.2-0.1,0.5-0.2,0.7-0.4
				l0.1-0.1c0,0,0,0.1,0,0.1s0,0.1,0,0.1c0.1,0.2,1.6,2.5,3.6,4.2c0,0,0.1,0.1,0.1,0.1l0,0.1l1.2,7C57.5,81.6,57.5,82.3,57.3,82.9z"
				/>
		</g>
	</g>
</g>
<path class="st8" d="M50.6,65.4L49.1,64l0,0h-0.2c0,0,0.4,0.9,0.8,2.3C50,66,50.3,65.7,50.6,65.4z"/>
<path class="st8" d="M57.8,61.3c0,0.1,0,0.2,0,0.3c0.6,0.3,0.7,0.7,0.8,1c0.1,0.5-0.2,1-0.7,1.6c0.7,0.4,3.1,1.8,4,4.2
	c0,0,0,0.1,0,0.1s0,0.1,0,0.1c0,0,0,0.1-0.1,0.1c0,0-0.1,0.1-0.1,0.1c0,0-0.1,0-0.1,0c0,0-0.7,6-8.4,0.2c0,0,3.3,5.3,6.2,5.4
	c1.1,0,2.1-0.4,2.7-1.2c1.1-1.4,1.3-3.7,0.6-6.6C62.1,64.3,59.8,62.5,57.8,61.3z"/>
<path class="st8" d="M52.9,68.9L52.9,68.9L52.9,68.9z"/>
<path class="st8" d="M53,65.7c0,0,0.1,0.1,0.1,0.1c0,0,0,0.1,0,0.1c0,0,0,0.1,0,0.2c0,0,0,0.1-0.1,0.1c-0.9,0.9-1.5,1.5-1.9,1.8
	c-0.1,0.4-0.1,0.8,0,0.9c0,0,0.2,0,0.3,0c0.7-0.2,2.4-1.9,3.6-3.1c0.7-0.7,1.3-1.3,1.8-1.6c0.7-0.5,1-1.1,1-1.4
	C54.4,66.7,53,65.7,53,65.7z"/>
<path class="st2" d="M41,57.6h3.2l-0.1-1l-3.6,0.1L41,57.6z"/>
<path class="st14" d="M43.1,58.3c-0.2,0-0.5,0-0.7,0.2c-0.2,0.1-0.4,0.2-0.6,0.5c0.3,0.4,0.7,0.7,1.2,0.7h0.1c0.2,0,0.3-0.1,0.4-0.2
	c0.2-0.3,0.3-0.6,0.3-0.9C43.6,58.3,43.4,58.3,43.1,58.3z"/>
<path class="st5" d="M43.8,58.1c-0.1-0.1-0.3,0-0.4,0c-0.1,0-0.2,0.1-0.3,0.2c-0.2,0.2-0.3,0.3-0.3,0.6c0,0,0,0.1,0.1,0
	c0.1-0.2,0.2-0.3,0.4-0.4c0.1,0,0.2-0.1,0.2-0.1c0,0,0.1,0,0.2,0c0.1,0,0.1,0,0.2,0c0,0,0.1,0,0.1-0.1
	C43.9,58.1,43.8,58.1,43.8,58.1z"/>
<path class="st9" d="M49.2,62.3c-0.1,0-0.1,0-0.2,0c-0.3,0-0.6-0.1-0.8-0.3c-0.2-0.2-0.5-0.4-0.6-0.6c-0.2-0.2-0.2-0.5-0.3-0.7
	c0-0.3,0-0.5,0-0.8c0-0.1,0-0.2,0-0.3c0-0.1-0.1-0.2-0.2-0.2c-0.2-0.2-0.6-0.2-0.7-0.2c-0.5,0.2-0.8,0.9-0.8,1.6
	c0,0.4,0.1,1.2,0.9,1.7l0,0c0,0,1.1,0.7,2.3,0.8c0.1,0,0.2,0,0.3,0c0.4,0,0.8-0.1,1.2-0.3c0,0,0.1,0,0.1,0s0.1,0,0.2,0
	c0,0,0.1,0,0.1,0.1c0,0,0.1,0.1,0.1,0.1c0,0,0,0.1,0,0.1c0,0,0,0.1,0,0.2c0,0,0,0.1-0.1,0.1c0,0-0.1,0.1-0.1,0.1
	c-0.2,0.1-0.4,0.2-0.7,0.3l1.1,1.1c0.9-0.9,1.8-1.8,2.7-2.6l-1.1-1L52,61.3C52.1,61.3,50.7,62.8,49.2,62.3z"/>
<path class="st11" d="M51.9,58.2c-0.6-1.4-2.3-1.9-3.7-1.6c-0.7,0.1-1.3,0.6-1.4,1.3c0,0.2,0,0.3,0,0.5c0,0.2,0.1,0.3,0.3,0.4
	c0.2,0.2,0.4,0.2,0.7,0.2c0,0,0,0,0,0c0,0,0,0,0,0c-0.2,0-0.4-0.3-0.5-0.5c-0.1-0.2,0-0.4,0.1-0.6c0.3-0.4,0.9-0.5,1.3-0.5
	C49.9,57.1,51.3,57.2,51.9,58.2C51.9,58.3,51.9,58.3,51.9,58.2z"/>
<path class="st11" d="M52.1,55.2c0-0.2,0-0.4,0-0.6c0-0.4-0.2-0.8-0.4-1.2c-0.1-0.2-0.3-0.4-0.5-0.5c-0.1,0-0.2-0.1-0.3,0
	c-0.1,0-0.2,0-0.3,0.1c-0.2,0.1-0.3,0.3-0.4,0.5c-0.1,0.2,0,0.5,0,0.7c0,0,0,0,0,0.1c0,0,0,0,0.1,0c0-0.2,0.1-0.4,0.2-0.5
	c0.1-0.1,0.2-0.2,0.3-0.2s0.2,0.1,0.3,0.2c0.1,0.1,0.2,0.2,0.2,0.4c0,0.1,0.1,0.3,0.2,0.4c0.1,0.2,0.1,0.3,0.2,0.5
	c0.1,0.3,0.2,0.6,0.5,0.9c0,0,0,0,0.1,0c0,0,0,0,0-0.1C52.2,55.6,52.1,55.4,52.1,55.2z"/>
<path class="st9" d="M52.5,57.2c0-0.2-0.1-0.3-0.2-0.4c0,0,0-0.1-0.1-0.2c-0.1-0.3-0.3-0.6-0.5-0.9c-0.2-0.3-0.6-0.6-0.9-0.8
	c0-0.1-0.1-0.2-0.2-0.2c0,0-0.2,0.1-0.2,0c0,0,0,0,0,0.1c0.1,0.1,0.2,0.3,0.2,0.5c0,0.4,0.1,0.8,0.4,1.2c0.1,0.2,0.8,0.7,0.8,0.7
	c0,0,0.1,0.2,0.1,0.2c0,0,0.2,0.3,0.4,0.3c0,0,0.2,0,0.2,0c0-0.1,0-0.1,0-0.2C52.5,57.3,52.5,57.3,52.5,57.2z"/>
<path class="st9" d="M16.4,44.2l4.7-1.8l-5.5,0.1L16.4,44.2z"/>
<path class="st9" d="M26.7,48.3l-0.5-1.2l-2,1.3c-0.1,0.1-0.3,0.2-0.4,0.2c-0.2,0.1-0.3,0.1-0.5,0.1c-0.2,0-0.3,0-0.5,0
	c-0.2,0-0.3,0-0.5-0.1c-0.2,0-0.3-0.1-0.5-0.2c-0.2-0.1-0.3-0.2-0.4-0.3c-0.1-0.1-0.2-0.2-0.3-0.4c-0.1-0.1-0.2-0.3-0.2-0.4
	l-1.1-2.2l-2-1.8l-1.5,0.8l2.5,1.5l2.3,5.2l0.3,0.8L26.7,48.3z"/>
<path class="st15" d="M37.9,49.3c0,0-1.7-0.1-2.3-1c0,0,0,1.3,1.2,1.6c0,0-0.5,0.2-1.3-0.1c0,0,0.2,0.9,0.9,1
	c-0.2,0.5-0.2,1-0.2,1.5c0,1.7,0.8,3,1.8,3s1.8-1.4,1.8-3C39.7,50.6,38.9,49.3,37.9,49.3z"/>
<path class="st15" d="M39.5,47.4c-1.3-0.7-2.7-0.1-2.8-0.1c-0.1,0-0.1,0.1-0.2,0.1c0,0-0.1,0.1-0.1,0.2c0,0.1,0,0.1,0,0.2
	s0,0.1,0,0.2c0,0.1,0.1,0.1,0.1,0.2s0.1,0.1,0.2,0.1c0.1,0,0.1,0,0.2,0s0.1,0,0.2,0c0,0,1.1-0.5,1.9,0c0.1,0,0.2,0.1,0.2,0.1
	c0.1,0,0.2,0,0.3-0.1s0.1-0.2,0.2-0.2c0-0.1,0-0.2,0-0.3C39.6,47.5,39.6,47.5,39.5,47.4z"/>
<path class="st15" d="M45.9,49.1c0.9-0.3,1.8,0.4,1.8,0.4c0.1,0.1,0.2,0.1,0.3,0.1s0.2,0,0.3-0.1c0.1-0.1,0.1-0.1,0.2-0.2
	c0-0.1,0-0.2,0-0.3s-0.1-0.2-0.2-0.2c0,0-1.3-1-2.7-0.5c-0.1,0-0.1,0-0.2,0.1c0,0-0.1,0.1-0.1,0.2c0,0,0,0.1,0,0.2s0,0.1,0,0.2
	c0,0.1,0,0.1,0.1,0.2s0.1,0.1,0.2,0.1c0.1,0,0.1,0,0.2,0C45.7,49.1,45.8,49.1,45.9,49.1L45.9,49.1z"/>
<path class="st15" d="M44.4,53.2c0,0,0.6-0.5,1.2-0.5c0.5,0.1,0.9,0.4,1.3,1.1c0,0,0.1,0.1,0.1,0.1c0,0,0.1,0.1,0.2,0.1
	c0.1,0,0.1,0,0.2,0c0.1,0,0.1,0,0.2-0.1c0,0,0.1-0.1,0.1-0.1c0,0,0.1-0.1,0.1-0.2c0-0.1,0-0.1,0-0.2c0-0.1,0-0.1-0.1-0.2
	c-0.6-0.9-1.2-1.5-2-1.6c-1.1-0.2-2,0.7-2,0.7c0,0-0.1,0.1-0.1,0.2c0,0.1,0,0.1,0,0.2s0,0.1,0,0.2c0,0.1,0.1,0.1,0.1,0.2
	c0,0,0.1,0.1,0.2,0.1c0.1,0,0.1,0,0.2,0s0.1,0,0.2,0S44.4,53.3,44.4,53.2L44.4,53.2z"/>
<path class="st15" d="M44.1,56.1l-3.6,0c-0.2,0-0.3,0-0.4,0.2c-0.1,0.1-0.1,0.2-0.1,0.4c0,0.2,0.7,3.8,2.9,3.8c0,0,0.1,0,0.2,0
	c0.2,0,0.4-0.1,0.6-0.2c0.2-0.1,0.3-0.2,0.5-0.4c0.8-1,0.5-3.1,0.4-3.3c0,0,0-0.1,0-0.2c0,0-0.1-0.1-0.1-0.1c0,0-0.1-0.1-0.1-0.1
	C44.2,56.2,44.2,56.1,44.1,56.1z M43.7,58c0,0.1,0,0.2,0,0.3c0,0,0,0,0,0.1c0,0.3-0.1,0.6-0.3,0.9c-0.1,0.1-0.2,0.2-0.4,0.2
	c-0.5,0-0.9-0.3-1.2-0.7c-0.2-0.4-0.4-0.7-0.6-1.1c-0.1-0.2-0.1-0.4-0.2-0.6l2.6,0c0,0.2,0,0.4,0,0.6C43.7,57.8,43.7,57.9,43.7,58z"
	/>
<g>
	<g>
		<defs>
			<rect id="SVGID_00000171705714907976639030000004955217432019500932_" x="1.3" y="22.9" width="67" height="62.6"/>
		</defs>
		<clipPath id="SVGID_00000120545958110384704410000002095535136204855965_">
			<use xlink:href="#SVGID_00000171705714907976639030000004955217432019500932_"  style="overflow:visible;"/>
		</clipPath>
		<g style="clip-path:url(#SVGID_00000120545958110384704410000002095535136204855965_);">
			<path class="st15" d="M68,41.3c-1-3-4.9-4.6-5.8-4.9c0-0.5,0-1.1,0-1.6c-0.1-0.5-0.2-1-0.5-1.5c-1.5-3.1-6-4.9-10.6-4.4
				c-2.2,0.3-4.4,0.4-6.6,0.3c0,0,0-0.1-0.1-0.1c-1.2-1.4-5.2-4.6-9.4-4.7c-2.4,0-4.4,0.9-6.1,2.8c-0.4,0.4-0.7,0.9-1,1.3
				c-1.4-1.1-3-1.8-4.8-2.2c0-0.2,0-0.4-0.1-0.6c0-0.2-0.1-0.4-0.2-0.6c-0.1-0.2-0.2-0.4-0.3-0.5c-0.1-0.2-0.2-0.3-0.4-0.5
				c-0.2-0.1-0.3-0.3-0.5-0.4c-0.2-0.1-0.3-0.2-0.5-0.3c-0.2-0.1-0.4-0.1-0.6-0.2c-0.2,0-0.4-0.1-0.6-0.1c-0.2,0-0.4,0-0.6,0.1
				c-0.2,0-0.4,0.1-0.6,0.2c-0.2,0.1-0.4,0.2-0.6,0.3s-0.3,0.2-0.5,0.4c-0.2,0.2-0.3,0.3-0.4,0.5c-0.1,0.2-0.2,0.4-0.3,0.5
				c-0.1,0.2-0.2,0.4-0.2,0.6c0,0.2-0.1,0.4-0.1,0.6c-0.4,0.1-0.7,0.2-1.1,0.3c-0.3,0.1-0.7,0.2-1,0.4s-0.7,0.3-1,0.5
				s-0.6,0.4-0.9,0.5c-0.3,0.2-0.6,0.4-0.9,0.6c-0.3,0.2-0.6,0.5-0.9,0.7c-0.3,0.2-0.5,0.5-0.8,0.8s-0.5,0.5-0.7,0.8
				c-0.2,0.3-0.5,0.6-0.7,0.9c-0.2,0.3-0.4,0.6-0.6,0.9c-0.2,0.3-0.3,0.7-0.5,1c-0.2,0.3-0.3,0.7-0.4,1c-0.1,0.3-0.2,0.7-0.3,1
				c-0.1,0.4-0.2,0.7-0.2,1.1c-0.1,0.4-0.1,0.7-0.2,1.1c-0.1,0.4-0.1,0.7-0.1,1.1H3.1c-0.1,0-0.2,0-0.4,0c-0.1,0-0.2,0.1-0.3,0.1
				s-0.2,0.1-0.3,0.2c-0.1,0.1-0.2,0.1-0.3,0.2c-0.1,0.1-0.2,0.2-0.2,0.3c-0.1,0.1-0.1,0.2-0.2,0.3s-0.1,0.2-0.1,0.3
				c0,0.1,0,0.2,0,0.4c0,0.1,0,0.2,0,0.4c0,0.1,0.1,0.2,0.1,0.3c0,0.1,0.1,0.2,0.2,0.3c0.1,0.1,0.1,0.2,0.2,0.3
				c0.1,0.1,0.2,0.2,0.3,0.2c0.1,0.1,0.2,0.1,0.3,0.2s0.2,0.1,0.3,0.1c0.1,0,0.2,0,0.4,0h11.4l3.8,3.7l2.8,5.6
				c-0.6,0.5-1.2,0.9-1.8,1.3c-0.1,0.1-0.2,0.2-0.3,0.3c-0.1,0.1-0.2,0.2-0.2,0.4c0,0.1-0.1,0.2-0.1,0.4s0,0.3,0,0.4
				c0,0.2,0.1,0.3,0.2,0.5s0.3,0.2,0.4,0.3c0.1,0,0.2,0,0.3,0.1c-0.1,0.4-0.1,0.9,0.2,1.3c0.1,0.1,0.2,0.2,0.4,0.3
				c0.2,0.1,0.3,0.1,0.5,0.1c0.1,0,0.2,0,0.3,0c0.2,0,0.5-0.1,0.7-0.2c0.4,0.6,5.8,7.2,5.9,14c0,3.2-0.2,6.3-0.6,9.4
				c-0.1,0.7,0,1.4,0.2,2.1c0.4,0.2,0.7,0.4,1.1,0.6l0.1,0.1c-0.2-0.4-0.4-0.9-0.5-1.3c-0.1-0.4-0.1-0.9,0-1.4
				c0.4-3.2,0.6-6.4,0.6-9.6c-0.1-6.8-4.9-13.2-5.9-14.5c1.1-0.6,2.3-1.5,3.5-2.3c0.9-0.6,1.7-1.2,2.2-1.5c0.2-0.1,0.4-0.2,0.5-0.3
				l3.4,5.5c0,0,0.1,0.1,0.1,0.1c0.5,1.2,1.1,2.3,1.8,3.3c0.9,1.1,2,2,3.3,2.7L36,64c-0.1,0-0.2,0-0.2,0.1c-0.1,0-0.1,0.1-0.2,0.2
				c0,0.1-4,9.4-1.4,21l0.1,0c0.3,0.1,0.5,0.2,0.8,0.2l0.1,0c-2.5-10.4,0.4-19,1.1-20.7l3.5-0.2c0.9,0.2,1.9,0.4,2.9,0.4
				c0.2,0,0.5,0,0.7,0c1.9,0,3.7-0.3,5.5-1.1h0c0,0,0,0,0.1,0l0,0l1.4,1.3c-0.3,0.3-0.6,0.7-0.9,1c-0.1,0.1-0.2,0.2-0.2,0.3
				s-0.1,0.2-0.1,0.4c0,0.1,0,0.2,0,0.4c0,0.1,0,0.2,0.1,0.4c0,0.2,0.2,0.3,0.3,0.4c0.1,0.1,0.3,0.2,0.5,0.2c0.1,0,0.1,0,0.2,0h0
				c0,0.4,0.1,0.8,0.4,1.1c0.2,0.2,0.4,0.2,0.7,0.2c0.2,0,0.3,0,0.5-0.1c0.2-0.1,0.5-0.2,0.7-0.4c0,0,0,0.1,0,0.1
				c0.1,0.2,1.6,2.6,3.6,4.3l1.2,7.1c0.1,0.7,0.1,1.4-0.2,2.1c0,0,0.1,0,0.1-0.1c0.3-0.2,0.7-0.3,1-0.5c0.1-0.6,0.1-1.1,0-1.7
				l-1.1-6.2c0.7,0.4,1.4,0.7,2.1,0.7c0.1,0,0.1,0,0.2,0c0.3,0,0.6,0,0.9-0.1c0.3-0.1,0.6-0.2,0.9-0.3c0.3-0.1,0.5-0.3,0.8-0.5
				s0.5-0.4,0.7-0.7c1.3-1.6,1.5-4.2,0.7-7.4c-0.7-2.6-3.2-4.5-5.4-5.9l0.1-3c0.4-0.2,0.7-0.4,1-0.7c0.2-0.2,0.3-0.4,0.5-0.6
				s0.3-0.4,0.4-0.6s0.2-0.5,0.3-0.7s0.1-0.5,0.2-0.7c0-0.2,0-0.5,0-0.7s0-0.5-0.1-0.7c0-0.2-0.1-0.5-0.2-0.7
				c-0.1-0.2-0.2-0.5-0.3-0.7c1.1-0.8,1.6-1.7,1.6-2.8c0-0.2,0-0.3,0-0.5c0.5,0.1,0.9,0.2,1.4,0.2c1.6,0,2.9-0.6,3.8-1.8
				C68.1,44.6,68.5,42.9,68,41.3z M19.8,24.1c0.1,0,0.3,0,0.4,0c0.1,0,0.3,0.1,0.4,0.1c0.1,0,0.2,0.1,0.4,0.2
				c0.1,0.1,0.2,0.2,0.3,0.2c0.1,0.1,0.2,0.2,0.3,0.3s0.2,0.2,0.2,0.3c0.1,0.1,0.1,0.2,0.2,0.4c0,0.1,0.1,0.3,0.1,0.4
				c-1.5-0.2-3-0.2-4.5,0c0-0.1,0-0.3,0.1-0.4s0.1-0.2,0.2-0.4c0.1-0.1,0.1-0.2,0.2-0.3c0.1-0.1,0.2-0.2,0.3-0.3
				c0.1-0.1,0.2-0.2,0.3-0.2c0.1-0.1,0.2-0.1,0.4-0.2c0.1,0,0.3-0.1,0.4-0.1C19.6,24.1,19.7,24.1,19.8,24.1z M19.8,26.8
				c0.7,0,1.4,0,2,0.2s1.3,0.3,2,0.5c0.7,0.2,1.3,0.5,1.9,0.8c0.6,0.3,1.2,0.7,1.7,1.1c-0.2,0.5-0.4,1.1-0.5,1.7
				c-0.1,0.6-0.1,1.2-0.1,1.8c0.2,2.8,2.1,5,3.2,6.1H7.3c0-0.4,0-0.8,0.1-1.2c0-0.4,0.1-0.8,0.2-1.2c0.1-0.4,0.2-0.8,0.3-1.2
				c0.1-0.4,0.3-0.8,0.4-1.1c0.2-0.4,0.3-0.7,0.5-1.1c0.2-0.4,0.4-0.7,0.7-1c0.2-0.3,0.5-0.7,0.7-0.9c0.3-0.3,0.5-0.6,0.8-0.9
				c0.3-0.3,0.6-0.5,0.9-0.8c0.3-0.2,0.6-0.5,1-0.7c0.3-0.2,0.7-0.4,1-0.6s0.7-0.4,1.1-0.5c0.4-0.2,0.7-0.3,1.1-0.4
				c0.4-0.1,0.8-0.2,1.2-0.3c0.4-0.1,0.8-0.1,1.2-0.2C19,26.8,19.4,26.8,19.8,26.8z M30.1,41.6h-6.1c0-0.5-0.2-1.1-0.6-1.5
				c-0.1-0.1-0.2-0.1-0.2-0.2h7.2C30.2,40.4,30.1,41,30.1,41.6z M2.2,40.8c0-0.1,0-0.2,0.1-0.3c0-0.1,0.1-0.2,0.2-0.3
				C2.6,40.1,2.7,40,2.7,40c0.1,0,0.2-0.1,0.3-0.1h18.1c-0.2,0.1-0.4,0.3-0.5,0.5c-0.2,0.4-0.3,0.8-0.3,1.2l-5.7,0H3.1
				c-0.1,0-0.2,0-0.3-0.1c-0.1,0-0.2-0.1-0.3-0.2c-0.1-0.1-0.1-0.2-0.2-0.3C2.2,41,2.2,40.9,2.2,40.8z M19.1,45.8c0,0,0-0.1-0.1-0.1
				l-3.1-3.1l5.1,0h0c0,0,0,0,0.1,0h0c0,0,0,0,0.1,0h0c0,0,0,0,0.1,0l0,0c0,0,0,0,0,0l0,0c0,0,0,0,0-0.1v0c0,0,0,0,0-0.1v0
				c0,0,0,0,0-0.1c0,0,0,0,0,0v0c0,0,0-0.1,0-0.1c0-0.2-0.1-0.7,0.1-1c0.1-0.2,0.3-0.3,0.6-0.3c0.3,0,0.5,0,0.7,0.2
				c0.3,0.3,0.4,0.9,0.4,1.2c0,0,0,0,0,0c0,0,0,0,0,0v0c0,0,0,0,0,0c0,0,0,0,0,0v0l0,0v0l3,6.2c-1.3,0.7-2.8,1.8-4.3,2.8L19.1,45.8z
				 M27.9,51.8c-0.6,0.3-1.4,0.9-2.3,1.5c-1.6,1.1-3.8,2.7-4.7,2.8c-0.2,0-0.3,0-0.3,0c-0.1-0.1,0-0.5,0.1-0.9
				c0.6-0.2,1.4-0.7,2.5-1.6c0,0,0.1-0.1,0.1-0.1c0,0,0-0.1,0.1-0.2c0-0.1,0-0.1,0-0.2c0-0.1,0-0.1-0.1-0.2c0,0-0.1-0.1-0.1-0.1
				c0,0-0.1,0-0.2-0.1c-0.1,0-0.1,0-0.2,0c-0.1,0-0.1,0-0.2,0.1c-2.3,1.8-2.9,1.6-3,1.6c0,0,0,0,0-0.1c0-0.1,0-0.2,0-0.3
				c0-0.1,0.1-0.2,0.2-0.2c4.2-3.1,7.6-5.2,8.3-5.3c0.1,0,0.4,0,0.4,0.2c0.1,0.3-0.4,1.1-1.6,1.5c-0.1,0-0.1,0-0.2,0.1
				c0,0-0.1,0.1-0.1,0.2c0,0.1,0,0.1,0,0.2s0,0.1,0,0.2c0,0.1,0,0.1,0.1,0.2c0,0,0.1,0.1,0.2,0.1c0.1,0,0.1,0,0.2,0c0,0,0.1,0,0.2,0
				c0.7-0.2,1.3-0.6,1.8-1.1c0.1,0.1,0.2,0.2,0.2,0.4C29.3,50.7,28.9,51.2,27.9,51.8z M29.6,51.7c0.4-0.4,0.6-0.8,0.6-1.2
				c0-0.3-0.1-0.8-0.7-1.2c0.1-0.2,0.1-0.4,0-0.6c-0.1-0.5-0.5-1-1.4-0.9c-0.3,0-0.7,0.2-1.2,0.4l-2.7-5.5h5.9
				c0.1,0.5,0.2,0.9,0.4,1.4c0.2,0.5,0.4,1,0.8,1.3c0,0,0,0.1,0,0.2c0,0.1-0.1,0.7-0.2,1.7c0,0,0,0.1,0,0.1c0,0,0,0.1,0,0.2
				c-0.2,1.8-0.2,4.5,0.3,7.4L29.6,51.7z M51.1,64.7l-0.9-0.9c0.2-0.1,0.4-0.2,0.5-0.2c0,0,0.1-0.1,0.1-0.1c0,0,0.1-0.1,0.1-0.2
				c0-0.1,0-0.1,0-0.2c0-0.1,0-0.1-0.1-0.2c0-0.1-0.1-0.1-0.1-0.1c0,0-0.1-0.1-0.2-0.1c-0.1,0-0.1,0-0.2,0c-0.1,0-0.1,0-0.2,0.1
				c-0.3,0.2-0.7,0.3-1.1,0.3c-0.1,0-0.2,0-0.3,0l0,0c-1.1-0.1-2.2-0.7-2.2-0.7c0,0,0,0,0,0c-0.8-0.4-0.9-1.2-0.8-1.6
				c0-0.7,0.3-1.3,0.7-1.5c0.2,0,0.4,0,0.6,0.1c0.1,0,0.1,0.1,0.2,0.2c0,0.1,0,0.2,0,0.3c-0.1,0.3-0.1,0.5,0,0.8
				c0,0.3,0.2,0.5,0.3,0.8s0.4,0.5,0.7,0.6c0.2,0.2,0.5,0.3,0.8,0.3c0.2,0,0.3,0,0.5,0c0.4-0.1,0.7-0.2,0.9-0.5
				c0.5-0.5,0.7-1.2,0.6-2.1c0-0.2-0.1-0.4-0.2-0.6s-0.2-0.3-0.4-0.5c-0.3-0.3-0.8-0.4-1.3-0.3c-0.5,0.1-0.9,0.1-1.4,0
				c-0.1,0-0.2-0.1-0.3-0.1c-0.2,0-0.3-0.1-0.4-0.3c0-0.1,0-0.2,0.1-0.3c0.3-0.5,0.9-0.8,1.3-0.9c0.3-0.1,0.7-0.1,1,0
				c0.3,0,0.7,0.1,0.9,0.3l0,0l0,0h0c0.1,0,0.2,0.1,0.2,0.2c0.1,0,0.1,0.1,0.2,0.2c0.7,0.7,1.3,1.7,0.9,3.4c0,0,0,0.1,0,0.2
				c0,0.1,0,0.1,0,0.2c0,0,0.1,0.1,0.1,0.1c0,0,0.1,0.1,0.2,0.1c0,0,0,0,0,0c0.1,0,0.2,0,0.4-0.1c0,0,0,0,0.1-0.1l1.2,1.1
				C52.9,63,52,63.9,51.1,64.7L51.1,64.7z M48.1,59.4c0.4,0,0.8,0,1.2,0c0.2,0,0.4,0,0.6,0.1c0.1,0.1,0.2,0.2,0.2,0.4
				c0,0.6-0.1,1-0.3,1.3c-0.1,0.1-0.2,0.1-0.3,0.2c-0.1,0-0.2,0-0.3,0c-0.2,0-0.3-0.1-0.5-0.2c-0.1-0.1-0.3-0.2-0.4-0.3
				c-0.1-0.1-0.1-0.2-0.2-0.4c0-0.1,0-0.3,0-0.4C48.1,59.9,48.1,59.6,48.1,59.4L48.1,59.4z M53.6,53.8c0.5,0.3,0.1,2.5-0.8,5
				c0.1-1,0.1-2.1-0.1-3.1c0-0.8,0.3-1.8,0.6-2C53.4,53.6,53.5,53.7,53.6,53.8L53.6,53.8z M52,57.3c-0.2-0.2-0.4-0.5-0.6-0.7
				c0,0-0.1-0.1-0.1-0.1c-0.1-0.1-0.1-0.1-0.2-0.2c0,0,0,0,0,0c-0.3-0.8-0.8-2.7-0.2-3.5c0,0,0,0,0,0C51.2,53.1,51.9,54.9,52,57.3
				L52,57.3z M54.4,61.7l-1-0.9c0.3-0.3,0.6-0.7,0.8-1c0.2,0.1,0.9,0.4,1.8,0.8C55.5,60.8,54.9,61.2,54.4,61.7L54.4,61.7z
				 M54.4,53.2L54.4,53.2C54.4,53.1,54.4,53.1,54.4,53.2l-0.2-2.4c0.3,0,0.5,0.1,0.8,0.1c0,0-0.1,0.1-0.1,0.2L54.4,53.2z M56.3,50.1
				c0,0-0.1,0-0.2,0c-3.7-0.1-5.8-2-6.6-2.9c0.3-0.1,0.6-0.2,0.9-0.4c0,0,0.1-0.1,0.1-0.1c0,0,0.1-0.1,0.1-0.2c0-0.1,0-0.1,0-0.2
				s0-0.1,0-0.2c0,0-0.1-0.1-0.1-0.1c0,0-0.1-0.1-0.2-0.1c0,0-0.1,0-0.2,0c-0.1,0-0.1,0-0.2,0c-1.8,0.9-3.3,1-4.7,0.5
				c-1.6-0.6-2.5-2-2.8-2.8c4.2,0.2,9.2,1.9,14.2,6.4C56.6,50,56.5,50,56.3,50.1L56.3,50.1z M32.4,45.5
				C32.4,45.5,32.4,45.5,32.4,45.5c0.2-0.1,0.3-0.2,0.4-0.2c1.3-0.5,2.6-1,3.9-1.3c1.4-0.3,2.7-0.5,4.1-0.5
				c-1.5,1.1-5.1,3.4-8.6,3.2C32.3,46,32.4,45.5,32.4,45.5z M42.8,64.1c-0.9,0-1.7-0.1-2.5-0.3c-0.1,0-0.2-0.1-0.2-0.1l0,0
				c-2-0.5-3.7-1.6-5-3.2c-3-3.8-3.1-9.7-2.9-12.8c0.2,0,0.4,0,0.5,0c4,0,7.7-2.7,9-3.7c0.5,0.9,1.5,2.5,3.3,3.2
				c1.1,0.5,2.3,0.5,3.6,0.2c0.6,0.7,1.3,1.4,2.1,1.9c0.8,0.5,1.6,0.9,2.6,1.2l0.2,2.2c-0.2,0-0.3,0-0.5,0.1
				c-0.3,0.2-0.5,0.4-0.6,0.7c-0.3-0.8-0.7-1.4-1.2-1.6c-0.4-0.2-0.8,0-1.1,0.3c-0.7,0.9-0.5,2.6-0.2,3.6c-0.5-0.1-1.1-0.1-1.6,0
				c-0.9,0.2-1.6,0.7-2,1.4c-0.1,0.2-0.2,0.3-0.2,0.5c0,0.2,0,0.4,0.1,0.5c0,0-0.1,0-0.1,0c-0.8,0.4-1.3,1.3-1.3,2.3
				c0,0.3,0,0.7,0.2,1c0.1,0.3,0.3,0.6,0.5,0.9c0.2,0.2,0.4,0.4,0.7,0.6c0.3,0.2,0.7,0.4,1.1,0.5C45.7,64.1,44.3,64.2,42.8,64.1z
				 M51.4,68.9c-0.1,0-0.1,0-0.2,0c-0.1-0.1-0.1-0.4,0-0.8c0.5-0.3,1.2-0.9,1.9-1.8c0,0,0.1-0.1,0.1-0.2c0-0.1,0-0.1,0-0.2
				c0-0.1,0-0.1,0-0.2c0,0-0.1-0.1-0.1-0.1c0,0-0.1-0.1-0.2-0.1c-0.1,0-0.1,0-0.2,0c-0.1,0-0.1,0-0.2,0c0,0-0.1,0.1-0.2,0.1
				c-1.7,1.9-2.2,1.8-2.2,1.8c0,0,0,0,0,0c0-0.1,0-0.2,0-0.2c0-0.1,0-0.2,0.1-0.2c3.1-3.3,5.8-5.6,6.4-5.8c0.2,0,0.3,0,0.3,0.1
				c0.1,0.3-0.2,1-1.2,1.5c0,0-0.1,0.1-0.1,0.1c0,0-0.1,0.1-0.1,0.2c0,0.1,0,0.1,0,0.2s0,0.1,0,0.2c0,0,0.1,0.1,0.1,0.1
				c0,0,0.1,0.1,0.2,0.1c0.1,0,0.1,0,0.2,0c0.1,0,0.1,0,0.2,0c0.6-0.3,1-0.7,1.4-1.2c0.1,0.1,0.1,0.1,0.2,0.2c0,0.2-0.2,0.7-1,1.4
				c-0.5,0.4-1.1,1-1.8,1.7C53.8,67,52.1,68.6,51.4,68.9z M62.6,66.6c0.7,2.9,0.5,5.2-0.6,6.5c-0.6,0.8-1.6,1.2-2.7,1.1
				c-2.8-0.1-6.1-5.3-6.1-5.3c0-0.1-0.1-0.1-0.1-0.2c0.7-0.6,1.6-1.4,2.6-2.4c0.7-0.7,1.3-1.3,1.7-1.6c0,0,0,0,0,0
				c0,0,2.8,1.4,3.8,3.8c0,0.1,0.1,0.2,0.2,0.2c0.1,0,0.2,0.1,0.3,0.1c0.1,0,0.1,0,0.2,0s0.1-0.1,0.2-0.1c0,0,0.1-0.1,0.1-0.2
				c0-0.1,0-0.1,0-0.2c0-0.1,0-0.1,0-0.2c-0.9-2.3-3.2-3.7-4-4.2c0.5-0.5,0.7-1.1,0.6-1.6c0-0.3-0.2-0.7-0.8-1c0,0,0-0.1,0-0.1
				C59.9,62.7,62,64.4,62.6,66.6L62.6,66.6z M57.2,60c-0.8-0.4-1.6-0.8-2.4-1.1c0.3-0.5,0.6-1.1,0.9-1.6c0.3,0.2,0.7,0.4,1.1,0.4
				c0.1,0,0.3,0,0.4,0c0,0,0.1,0,0.2,0L57.2,60z M59.6,54.1c0,0.4-0.2,0.8-0.3,1.1c-0.2,0.4-0.4,0.7-0.7,0.9
				c-0.5,0.5-1.1,0.7-1.7,0.6c-0.4-0.1-0.8-0.2-1.1-0.5c0,0-0.1-0.1-0.2-0.1s-0.1,0-0.2,0c-0.1,0-0.1,0-0.2,0
				c-0.1,0-0.1,0.1-0.2,0.1l0,0c0,0-0.1,0.1-0.1,0.2c-0.3,0.7-0.6,1.3-1,1.9c0.1-0.2,0.2-0.5,0.2-0.8c0.1-0.4,0.2-0.7,0.3-1.1
				c0,0,0.1-0.1,0.1-0.2l1.2-4.6c0,0,0.1-0.1,0.1-0.1c0.5-0.6,1.2-0.8,1.8-0.7C59,51,59.8,52.4,59.6,54.1L59.6,54.1z M66,45.9
				c-1,1.4-2.6,1.8-4.8,1.2c-1.2-2.5-4.6-4.6-4.8-4.7c0,0-0.1,0-0.2,0s-0.1,0-0.2,0c-0.1,0-0.1,0-0.2,0.1c0,0-0.1,0.1-0.1,0.1
				c0,0,0,0.1-0.1,0.2c0,0.1,0,0.1,0,0.2c0,0.1,0,0.1,0.1,0.2c0,0,0.1,0.1,0.1,0.1c1.3,0.8,4.7,3.3,4.7,5.4c0,0.7-0.4,1.4-1.2,2
				c-0.4-0.4-0.9-0.7-1.5-0.8c-4.7-4.5-9.9-6.9-15.5-7.2c-1.7-0.1-3.4,0-5.1,0.3c-1.7,0.3-3.4,0.8-4.9,1.5c-0.2,0.1-0.3,0-0.3,0
				c-0.1,0-0.3-0.2-0.6-0.9c-0.8-2.2-0.7-3.4,0.7-4.1c7-3.8,15.9-0.1,16-0.1c0.1,0,0.1,0,0.2,0s0.1,0,0.2,0c0.1,0,0.1-0.1,0.2-0.1
				c0,0,0.1-0.1,0.1-0.2c0-0.1,0-0.1,0-0.2s0-0.1,0-0.2s-0.1-0.1-0.1-0.2c0,0-0.1-0.1-0.2-0.1c-0.4-0.2-9.4-3.8-16.8,0.1
				c-0.2,0.1-0.3,0.2-0.5,0.3c-0.6-0.5-3.3-3-3.6-6.2c0-0.6,0-1.1,0.1-1.7c0.1-0.6,0.3-1.1,0.6-1.6c0,0,0,0,0,0
				c0.3-0.6,0.7-1.1,1.1-1.6c1.5-1.7,3.3-2.5,5.3-2.5c3.4,0,6.7,2.4,8.1,3.8c-2.8-0.2-4.6-0.7-5-0.9l0,0c0,0-0.1,0-0.2-0.1
				c-0.1,0-0.1,0-0.2,0c-0.1,0-0.1,0-0.2,0.1c0,0-0.1,0.1-0.1,0.1c0,0.1-0.1,0.2-0.1,0.2c0,0.1,0,0.2,0.1,0.2c0.4,0.5,4.1,1,4.2,1
				c3.2,0.4,6.4,0.3,9.6-0.1c4.3-0.5,8.3,1.1,9.7,3.9c1.1,2.2,0.3,5-2.4,7.7c0,0-0.1,0.1-0.1,0.2c0,0.1,0,0.1,0,0.2
				c0,0.1,0,0.1,0,0.2c0,0.1,0.1,0.1,0.1,0.2c0.1,0.1,0.2,0.1,0.3,0.1s0.2,0,0.3-0.1c1.7-1.8,2.6-3.4,2.9-4.7c1,0.4,4.3,1.8,5.1,4.3
				C67.5,42.9,67.2,44.3,66,45.9L66,45.9z"/>
		</g>
	</g>
</g>
<path class="st15" d="M58,51.3c-0.2,0-0.4-0.1-0.6,0c-0.2,0-0.4,0.1-0.6,0.2c-0.2,0.1-0.3,0.2-0.4,0.4c-0.1,0.1-0.2,0.3-0.3,0.5
	c-0.1,0.2-0.2,0.3-0.2,0.5s-0.1,0.4-0.1,0.5c0,0.2,0,0.4,0,0.6c0,0.2,0.1,0.4,0.2,0.6c0.1,0.2,0.2,0.4,0.3,0.5
	c0.1,0.2,0.3,0.3,0.4,0.5c0,0,0.1,0.1,0.2,0.1c0,0,0.1,0,0.2,0s0.1,0,0.2,0c0.1,0,0.1-0.1,0.2-0.1c0,0,0.1-0.1,0.1-0.2
	c0-0.1,0-0.1,0-0.2c0-0.1,0-0.1,0-0.2c0,0-0.1-0.1-0.1-0.1c-0.1-0.1-0.2-0.2-0.3-0.4c-0.1-0.2-0.2-0.3-0.2-0.5c0-0.2,0-0.3,0-0.5
	c0-0.2,0-0.3,0.1-0.5c0.1,0.1,0.2,0.1,0.2,0.2c0.1,0.1,0.1,0.2,0.1,0.3c0,0.1,0,0.1,0,0.2c0,0,0.1,0.1,0.1,0.1c0,0,0.1,0.1,0.2,0.1
	c0,0,0.1,0,0.2,0h0c0.1,0,0.1,0,0.2,0c0,0,0.1-0.1,0.2-0.1c0,0,0.1-0.1,0.1-0.2c0-0.1,0-0.1,0-0.2c0-0.2-0.1-0.5-0.2-0.7
	c-0.1-0.2-0.2-0.4-0.4-0.5c0.1-0.1,0.2-0.1,0.3,0c0.1,0,0.2,0.1,0.3,0.2c0,0,0.1,0.1,0.1,0.1c0,0,0.1,0.1,0.2,0.1c0,0,0.1,0,0.2,0
	c0.1,0,0.1,0,0.2,0c0,0,0.1-0.1,0.1-0.1c0,0,0.1-0.1,0.1-0.2c0-0.1,0-0.1,0-0.2c0-0.1,0-0.1,0-0.2c-0.1-0.2-0.2-0.3-0.4-0.4
	C58.3,51.4,58.1,51.3,58,51.3z"/>
<path class="st15" d="M37.8,67.5c-0.1,0-0.2,0-0.3,0c-0.1,0-0.2,0-0.3,0.1c-0.1,0-0.2,0.1-0.3,0.2c-0.1,0.1-0.2,0.1-0.2,0.2
	c-0.1,0.1-0.1,0.2-0.2,0.2c-0.1,0.1-0.1,0.2-0.2,0.3c0,0.1-0.1,0.2-0.1,0.3c0,0.1,0,0.2,0,0.3s0,0.2,0,0.3c0,0.1,0,0.2,0.1,0.3
	c0,0.1,0.1,0.2,0.2,0.3c0.1,0.1,0.1,0.2,0.2,0.2c0.1,0.1,0.2,0.1,0.2,0.2c0.1,0.1,0.2,0.1,0.3,0.2c0.1,0,0.2,0.1,0.3,0.1
	s0.2,0,0.3,0s0.2,0,0.3,0s0.2,0,0.3-0.1c0.1,0,0.2-0.1,0.3-0.2c0.1-0.1,0.2-0.1,0.2-0.2c0.1-0.1,0.1-0.2,0.2-0.2
	c0.1-0.1,0.1-0.2,0.2-0.3s0.1-0.2,0.1-0.3c0-0.1,0-0.2,0-0.3s0-0.2,0-0.3c0-0.1,0-0.2-0.1-0.3c0-0.1-0.1-0.2-0.2-0.3
	C39,68.2,39,68.1,38.9,68c-0.1-0.1-0.2-0.1-0.2-0.2c-0.1-0.1-0.2-0.1-0.3-0.2c-0.1,0-0.2-0.1-0.3-0.1S37.8,67.5,37.8,67.5z
	 M37.8,69.8c-0.1,0-0.2,0-0.3,0c-0.1,0-0.2-0.1-0.2-0.2s-0.1-0.1-0.2-0.2c0-0.1,0-0.2,0-0.3s0-0.2,0-0.3c0-0.1,0.1-0.2,0.2-0.2
	c0.1-0.1,0.1-0.1,0.2-0.2c0.1,0,0.2,0,0.3,0c0.1,0,0.2,0,0.3,0c0.1,0,0.2,0.1,0.2,0.2c0.1,0.1,0.1,0.1,0.2,0.2c0,0.1,0,0.2,0,0.3
	s0,0.2,0,0.3c0,0.1-0.1,0.2-0.2,0.2c-0.1,0.1-0.1,0.1-0.2,0.2C37.9,69.8,37.8,69.8,37.8,69.8L37.8,69.8z"/>
<path class="st15" d="M37.2,76.4c0.1,0,0.2,0,0.3,0c0.1,0,0.2,0,0.3-0.1c0.1,0,0.2-0.1,0.3-0.2c0.1-0.1,0.2-0.1,0.2-0.2
	s0.1-0.2,0.2-0.2s0.1-0.2,0.2-0.3c0-0.1,0.1-0.2,0.1-0.3c0-0.1,0-0.2,0-0.3s0-0.2,0-0.3c0-0.1,0-0.2-0.1-0.3c0-0.1-0.1-0.2-0.2-0.3
	c-0.1-0.1-0.1-0.2-0.2-0.2s-0.2-0.1-0.2-0.2c-0.1-0.1-0.2-0.1-0.3-0.2c-0.1,0-0.2-0.1-0.3-0.1c-0.1,0-0.2,0-0.3,0
	c-0.1,0-0.2,0-0.3,0c-0.1,0-0.2,0-0.3,0.1c-0.1,0-0.2,0.1-0.3,0.2c-0.1,0.1-0.2,0.1-0.2,0.2c-0.1,0.1-0.1,0.2-0.2,0.2
	c-0.1,0.1-0.1,0.2-0.2,0.3c0,0.1-0.1,0.2-0.1,0.3c0,0.1,0,0.2,0,0.3c0,0.1,0,0.2,0,0.3c0,0.1,0,0.2,0.1,0.3c0,0.1,0.1,0.2,0.2,0.3
	c0.1,0.1,0.1,0.2,0.2,0.2c0.1,0.1,0.2,0.1,0.2,0.2c0.1,0.1,0.2,0.1,0.3,0.2c0.1,0,0.2,0.1,0.3,0.1C36.9,76.4,37.1,76.4,37.2,76.4z
	 M37.2,74.1c0.1,0,0.2,0,0.3,0c0.1,0,0.2,0.1,0.2,0.2s0.1,0.1,0.2,0.2c0,0.1,0,0.2,0,0.3s0,0.2,0,0.3c0,0.1-0.1,0.2-0.2,0.2
	c-0.1,0.1-0.1,0.1-0.2,0.2c-0.1,0-0.2,0-0.3,0c-0.1,0-0.2,0-0.3,0c-0.1,0-0.2-0.1-0.2-0.2s-0.1-0.1-0.2-0.2c0-0.1,0-0.2,0-0.3
	c0-0.1,0-0.2,0-0.3c0-0.1,0.1-0.2,0.2-0.2c0.1-0.1,0.1-0.1,0.2-0.2C37,74.1,37.1,74.1,37.2,74.1z"/>
<path class="st15" d="M37.2,79c-0.1,0-0.2,0-0.3,0c-0.1,0-0.2,0-0.3,0.1c-0.1,0-0.2,0.1-0.3,0.2c-0.1,0.1-0.2,0.1-0.2,0.2
	c-0.1,0.1-0.1,0.2-0.2,0.2c-0.1,0.1-0.1,0.2-0.2,0.3c0,0.1-0.1,0.2-0.1,0.3c0,0.1,0,0.2,0,0.3c0,0.1,0,0.2,0,0.3
	c0,0.1,0,0.2,0.1,0.3c0,0.1,0.1,0.2,0.2,0.3c0.1,0.1,0.1,0.2,0.2,0.2s0.2,0.1,0.2,0.2c0.1,0.1,0.2,0.1,0.3,0.2
	c0.1,0,0.2,0.1,0.3,0.1c0.1,0,0.2,0,0.3,0s0.2,0,0.3,0s0.2,0,0.3-0.1c0.1,0,0.2-0.1,0.3-0.2s0.2-0.1,0.2-0.2s0.1-0.2,0.2-0.2
	c0.1-0.1,0.1-0.2,0.2-0.3c0-0.1,0.1-0.2,0.1-0.3c0-0.1,0-0.2,0-0.3c0-0.1,0-0.2,0-0.3c0-0.1,0-0.2-0.1-0.3c0-0.1-0.1-0.2-0.2-0.3
	c-0.1-0.1-0.1-0.2-0.2-0.2s-0.2-0.1-0.2-0.2c-0.1-0.1-0.2-0.1-0.3-0.2c-0.1,0-0.2-0.1-0.3-0.1C37.5,79,37.3,79,37.2,79z M37.2,81.3
	c-0.1,0-0.2,0-0.3,0c-0.1,0-0.2-0.1-0.2-0.2s-0.1-0.1-0.2-0.2c0-0.1,0-0.2,0-0.3c0-0.1,0-0.2,0-0.3c0-0.1,0.1-0.2,0.2-0.2
	c0.1-0.1,0.1-0.1,0.2-0.2c0.1,0,0.2,0,0.3,0c0.1,0,0.2,0,0.3,0c0.1,0,0.2,0.1,0.2,0.2s0.1,0.1,0.2,0.2c0,0.1,0,0.2,0,0.3
	c0,0.1,0,0.2,0,0.3c0,0.1-0.1,0.2-0.2,0.2c-0.1,0.1-0.1,0.1-0.2,0.2C37.4,81.3,37.3,81.3,37.2,81.3z"/>
<path class="st2" d="M39.1,51c0,0.1,0,0.2,0,0.3c0,0.1-0.1,0.2-0.1,0.3c0,0.1-0.1,0.1-0.2,0.2c-0.1,0-0.2,0.1-0.2,0.1
	c-0.1,0-0.2,0-0.2-0.1s-0.1-0.1-0.2-0.2C38,51.5,38,51.4,38,51.3c0-0.1,0-0.2,0-0.3s0-0.2,0-0.3c0-0.1,0.1-0.2,0.1-0.3
	c0-0.1,0.1-0.1,0.2-0.2c0.1,0,0.2-0.1,0.2-0.1c0.1,0,0.2,0,0.2,0.1c0.1,0,0.1,0.1,0.2,0.2c0,0.1,0.1,0.2,0.1,0.3
	C39.1,50.7,39.1,50.9,39.1,51z"/>
<path class="st2" d="M37.9,51.7c0,0,0,0.1,0,0.1c0,0,0,0.1-0.1,0.1c0,0-0.1,0.1-0.1,0.1c0,0-0.1,0-0.1,0s-0.1,0-0.1,0
	s-0.1,0-0.1-0.1c0,0-0.1-0.1-0.1-0.1c0,0,0-0.1,0-0.1c0,0,0-0.1,0-0.1c0,0,0-0.1,0.1-0.1c0,0,0.1-0.1,0.1-0.1c0,0,0.1,0,0.1,0
	c0,0,0.1,0,0.1,0s0.1,0,0.1,0.1c0,0,0.1,0.1,0.1,0.1C37.8,51.6,37.9,51.6,37.9,51.7z"/>
<g>
	<g transform="translate(91.992794, 88.992957)">
		<g>
			<path class="st17" d="M-67.3-75.3l-2.2,1.3l4.3,7.6l-1.8,1.1l-4.3-7.6l-2.2,1.3l-0.9-1.5l6.3-3.6L-67.3-75.3z"/>
		</g>
	</g>
</g>
<g>
	<g transform="translate(121.694971, 72.924787)">
		<g>
			<path class="st17" d="M-89.3-52.8l-2,0.7l-3.6-9.9l2-0.7L-89.3-52.8z"/>
		</g>
	</g>
</g>
<g>
	<g transform="translate(137.838565, 66.638401)">
		<g>
			<path class="st17" d="M-99.1-52.4l-3.2,0.6l0.8,4.2l-2.1,0.4l-1.9-10.3l5.7-1.1l0.3,1.7l-3.6,0.7l0.5,2.7l3.2-0.6L-99.1-52.4z"/>
		</g>
	</g>
</g>
<g>
	<g transform="translate(166.543462, 61.251888)">
		<g>
			<path class="st17" d="M-119.9-47.1l-3.3,0l0,4.3l-2.1,0l0.1-10.5l5.8,0.1l0,1.8l-3.7,0l0,2.7l3.3,0L-119.9-47.1z"/>
		</g>
	</g>
</g>
<g>
	<g transform="translate(196.40048, 62.186504)">
		<g>
			<path class="st17" d="M-145.9-43.1l-2.1-0.4l1.8-10.3l2.1,0.4L-145.9-43.1z"/>
		</g>
	</g>
</g>
<g>
	<g transform="translate(213.214143, 64.158186)">
		<g>
			<path class="st17" d="M-154-42.2l-2-0.7l-0.5-7.5l-2.4,6.5l-2-0.7l3.7-9.8l2,0.7l0.5,7.5l2.4-6.5l2,0.7L-154-42.2z"/>
		</g>
	</g>
</g>
<g>
	<g transform="translate(261.418598, 85.388614)">
		<g>
			<path class="st17" d="M-192.5-59.9c0.3-0.3,0.4-0.7,0.4-1c0-0.3-0.2-0.7-0.5-1.3c-0.5-1-0.8-1.8-0.8-2.5c0-0.7,0.2-1.3,0.7-1.9
				c0.6-0.7,1.3-1,2.1-1c0.8,0,1.6,0.3,2.3,0.9c0.5,0.4,0.9,0.9,1.1,1.4c0.2,0.5,0.3,1.1,0.2,1.6c-0.1,0.6-0.4,1.1-0.8,1.6l-1.6-1.4
				c0.3-0.4,0.5-0.7,0.5-1.1c0-0.3-0.1-0.6-0.4-0.9c-0.3-0.2-0.6-0.3-0.9-0.3c-0.3,0-0.6,0.2-0.8,0.5c-0.2,0.2-0.3,0.5-0.2,0.8
				c0,0.3,0.2,0.8,0.5,1.3c0.5,0.9,0.8,1.8,0.8,2.5c0,0.7-0.2,1.4-0.8,2c-0.6,0.7-1.3,1.1-2,1.1c-0.8,0-1.6-0.3-2.3-0.9
				c-0.5-0.4-0.9-0.9-1.1-1.5c-0.2-0.6-0.3-1.1-0.2-1.8c0.1-0.6,0.4-1.2,0.8-1.7l1.6,1.4c-0.4,0.5-0.6,0.9-0.6,1.2s0.2,0.7,0.6,1.1
				C-193.6-59.3-193-59.3-192.5-59.9z"/>
		</g>
	</g>
</g>
<g>
	<g transform="translate(286.465728, 106.707888)">
		<g>
			<path class="st17" d="M-209.9-75.3l-2-2.6l-2.2,1.7l2.4,3.1l-1.4,1.1l-3.7-4.8l8.3-6.4l3.7,4.8l-1.4,1.1l-2.4-3.1l-2,1.5l2,2.6
				L-209.9-75.3z"/>
		</g>
	</g>
</g>
<g>
	<g transform="translate(304.884232, 130.199477)">
		<g>
			<path class="st17" d="M-226.2-93.3l-0.5-0.9l-3.5,1.6l-0.9-1.9l9.5-4.5l1.4,3.1c0.5,1,0.6,1.8,0.3,2.6c-0.2,0.8-0.8,1.3-1.8,1.8
				c-1.3,0.6-2.4,0.6-3.3-0.1l-3.1,3.5l-0.1,0l-1-2.1L-226.2-93.3z M-225-95l0.5,1.1c0.2,0.4,0.5,0.6,0.8,0.7c0.3,0.1,0.7,0,1.1-0.2
				c0.9-0.4,1.3-1,0.9-1.8l-0.5-1.1L-225-95z"/>
		</g>
	</g>
</g>
<g>
	<g transform="translate(319.31187, 160.356452)">
		<g>
			<path class="st17" d="M-238.6-114.6l7.8,0.1l0.5,2.3l-10.9-0.8l-0.5-2.2l9.7-5.1l0.5,2.3L-238.6-114.6z"/>
		</g>
	</g>
</g>
<g>
	<g transform="translate(325.915343, 195.542749)">
		<g>
			<path class="st17" d="M-247.2-141.9l-0.1-2.1l10.5-0.3l0.1,2.1L-247.2-141.9z"/>
		</g>
	</g>
</g>
<g>
	<g transform="translate(327.2244, 212.539216)">
		<g>
			<path class="st17" d="M-246.1-149.5c-1.2-0.2-2-0.7-2.5-1.4c-0.5-0.7-0.7-1.6-0.5-2.7c0.2-1.2,0.7-2,1.6-2.5
				c0.9-0.5,2-0.7,3.4-0.4l1.8,0.2c1.4,0.2,2.5,0.7,3.1,1.5c0.7,0.8,0.9,1.7,0.8,2.9c-0.2,1.1-0.6,1.9-1.3,2.4
				c-0.7,0.5-1.7,0.7-2.9,0.6l0.3-2.1c0.7,0.1,1.3,0,1.6-0.1c0.3-0.2,0.5-0.5,0.6-1.1c0.1-0.6,0-1-0.4-1.3c-0.4-0.3-1-0.5-1.9-0.7
				l-2-0.3c-1-0.2-1.8-0.1-2.2,0c-0.4,0.2-0.7,0.5-0.7,1.1c-0.1,0.5,0,0.9,0.2,1.2c0.2,0.2,0.7,0.4,1.4,0.6L-246.1-149.5z"/>
		</g>
	</g>
</g>
<g>
	<g transform="translate(321.940956, 246.774943)">
		<g>
			<path class="st17" d="M-242.3-176.4l1.2-3.1l-2.6-1l-1.4,3.6l-1.6-0.6l2.2-5.6l9.8,3.8l-2.2,5.6l-1.6-0.6l1.4-3.6l-2.3-0.9
				l-1.2,3.1L-242.3-176.4z"/>
		</g>
	</g>
</g>
</svg>
